<svg xmlns="http://www.w3.org/2000/svg" xmlns:xlink="http://www.w3.org/1999/xlink" width="1920" zoomAndPan="magnify" viewBox="0 0 1440 809.999993" height="1080" preserveAspectRatio="xMidYMid meet" version="1.0"><defs><clipPath id="2b55da3bb8"><path d="M 369.804688 677 L 409 677 L 409 717 L 369.804688 717 Z M 369.804688 677 " clip-rule="nonzero"/></clipPath><clipPath id="b94732f4cc"><path d="M 447 54.804688 L 487 54.804688 L 487 94 L 447 94 Z M 447 54.804688 " clip-rule="nonzero"/></clipPath><clipPath id="bbb01a119b"><path d="M 1031 385 L 1070.304688 385 L 1070.304688 425 L 1031 425 Z M 1031 385 " clip-rule="nonzero"/></clipPath><clipPath id="4c4a2c800a"><path d="M 843 469 L 1025 469 L 1025 755.304688 L 843 755.304688 Z M 843 469 " clip-rule="nonzero"/></clipPath><clipPath id="bd7efe4aad"><path d="M 991.835938 256.097656 L 1069.835938 256.097656 L 1069.835938 334.097656 L 991.835938 334.097656 Z M 991.835938 256.097656 " clip-rule="nonzero"/></clipPath></defs><path fill="#e7efff" d="M 1044.359375 405.054688 C 1044.359375 410.359375 1044.230469 415.664062 1043.96875 420.964844 C 1043.707031 426.265625 1043.316406 431.558594 1042.796875 436.839844 C 1042.277344 442.121094 1041.628906 447.390625 1040.847656 452.640625 C 1040.070312 457.890625 1039.164062 463.117188 1038.128906 468.320312 C 1037.09375 473.527344 1035.929688 478.703125 1034.640625 483.851562 C 1033.351562 489 1031.933594 494.117188 1030.394531 499.195312 C 1028.855469 504.273438 1027.1875 509.3125 1025.402344 514.308594 C 1023.613281 519.304688 1021.703125 524.257812 1019.671875 529.160156 C 1017.640625 534.0625 1015.492188 538.914062 1013.222656 543.710938 C 1010.953125 548.511719 1008.566406 553.25 1006.066406 557.929688 C 1003.5625 562.609375 1000.949219 567.226562 998.21875 571.78125 C 995.492188 576.332031 992.652344 580.816406 989.703125 585.226562 C 986.753906 589.640625 983.699219 593.980469 980.539062 598.242188 C 977.375 602.503906 974.113281 606.6875 970.746094 610.789062 C 967.378906 614.894531 963.914062 618.910156 960.347656 622.84375 C 956.785156 626.777344 953.125 630.617188 949.371094 634.371094 C 945.617188 638.125 941.777344 641.785156 937.84375 645.347656 C 933.910156 648.914062 929.894531 652.378906 925.789062 655.746094 C 921.6875 659.113281 917.503906 662.375 913.242188 665.539062 C 908.980469 668.699219 904.640625 671.753906 900.226562 674.703125 C 895.816406 677.652344 891.332031 680.492188 886.78125 683.21875 C 882.226562 685.949219 877.609375 688.5625 872.929688 691.066406 C 868.25 693.566406 863.507812 695.953125 858.710938 698.222656 C 853.914062 700.492188 849.0625 702.640625 844.160156 704.671875 C 839.257812 706.703125 834.304688 708.613281 829.308594 710.402344 C 824.3125 712.1875 819.273438 713.855469 814.195312 715.394531 C 809.117188 716.933594 804 718.351562 798.851562 719.640625 C 793.703125 720.929688 788.527344 722.09375 783.320312 723.128906 C 778.117188 724.164062 772.890625 725.070312 767.640625 725.847656 C 762.390625 726.628906 757.121094 727.277344 751.839844 727.796875 C 746.558594 728.316406 741.265625 728.707031 735.964844 728.96875 C 730.664062 729.230469 725.359375 729.359375 720.054688 729.359375 C 714.746094 729.359375 709.441406 729.230469 704.140625 728.96875 C 698.839844 728.707031 693.546875 728.316406 688.265625 727.796875 C 682.984375 727.277344 677.71875 726.628906 672.46875 725.847656 C 667.21875 725.070312 661.988281 724.164062 656.785156 723.128906 C 651.578125 722.09375 646.402344 720.929688 641.253906 719.640625 C 636.105469 718.351562 630.992188 716.933594 625.914062 715.394531 C 620.832031 713.855469 615.796875 712.1875 610.796875 710.402344 C 605.800781 708.613281 600.851562 706.703125 595.945312 704.671875 C 591.042969 702.640625 586.191406 700.492188 581.394531 698.222656 C 576.597656 695.953125 571.859375 693.566406 567.175781 691.066406 C 562.496094 688.5625 557.878906 685.949219 553.328125 683.21875 C 548.773438 680.492188 544.292969 677.652344 539.878906 674.703125 C 535.464844 671.753906 531.128906 668.699219 526.863281 665.539062 C 522.601562 662.375 518.417969 659.113281 514.316406 655.746094 C 510.214844 652.378906 506.195312 648.914062 502.261719 645.347656 C 498.332031 641.785156 494.488281 638.125 490.734375 634.371094 C 486.980469 630.617188 483.324219 626.777344 479.757812 622.84375 C 476.195312 618.910156 472.730469 614.894531 469.363281 610.789062 C 465.996094 606.6875 462.730469 602.503906 459.570312 598.242188 C 456.40625 593.980469 453.351562 589.640625 450.402344 585.226562 C 447.453125 580.816406 444.617188 576.332031 441.886719 571.78125 C 439.160156 567.226562 436.542969 562.609375 434.042969 557.929688 C 431.539062 553.25 429.152344 548.511719 426.882812 543.710938 C 424.617188 538.914062 422.464844 534.0625 420.433594 529.160156 C 418.402344 524.257812 416.492188 519.304688 414.707031 514.308594 C 412.917969 509.3125 411.253906 504.273438 409.710938 499.195312 C 408.171875 494.117188 406.757812 489 405.46875 483.851562 C 404.175781 478.703125 403.015625 473.527344 401.980469 468.320312 C 400.945312 463.117188 400.035156 457.890625 399.257812 452.640625 C 398.480469 447.390625 397.828125 442.121094 397.308594 436.839844 C 396.789062 431.558594 396.398438 426.265625 396.136719 420.964844 C 395.878906 415.664062 395.746094 410.359375 395.746094 405.054688 C 395.746094 399.746094 395.878906 394.441406 396.136719 389.140625 C 396.398438 383.839844 396.789062 378.546875 397.308594 373.265625 C 397.828125 367.984375 398.480469 362.71875 399.257812 357.46875 C 400.035156 352.21875 400.945312 346.988281 401.980469 341.785156 C 403.015625 336.578125 404.175781 331.402344 405.46875 326.253906 C 406.757812 321.105469 408.171875 315.992188 409.710938 310.914062 C 411.253906 305.832031 412.917969 300.796875 414.707031 295.796875 C 416.492188 290.800781 418.402344 285.851562 420.433594 280.945312 C 422.464844 276.042969 424.617188 271.191406 426.882812 266.394531 C 429.152344 261.597656 431.539062 256.859375 434.042969 252.175781 C 436.542969 247.496094 439.160156 242.878906 441.886719 238.328125 C 444.617188 233.773438 447.453125 229.292969 450.402344 224.878906 C 453.351562 220.464844 456.40625 216.128906 459.570312 211.863281 C 462.730469 207.601562 465.996094 203.417969 469.363281 199.316406 C 472.730469 195.214844 476.195312 191.195312 479.757812 187.261719 C 483.324219 183.332031 486.980469 179.488281 490.734375 175.734375 C 494.488281 171.980469 498.332031 168.324219 502.261719 164.757812 C 506.195312 161.195312 510.214844 157.730469 514.316406 154.363281 C 518.417969 150.996094 522.601562 147.730469 526.863281 144.570312 C 531.128906 141.40625 535.464844 138.351562 539.878906 135.402344 C 544.292969 132.453125 548.773438 129.617188 553.328125 126.886719 C 557.878906 124.160156 562.496094 121.542969 567.175781 119.042969 C 571.859375 116.539062 576.597656 114.152344 581.394531 111.882812 C 586.191406 109.617188 591.042969 107.464844 595.945312 105.433594 C 600.851562 103.402344 605.800781 101.492188 610.796875 99.707031 C 615.796875 97.917969 620.832031 96.253906 625.914062 94.710938 C 630.992188 93.171875 636.105469 91.757812 641.253906 90.46875 C 646.402344 89.175781 651.578125 88.015625 656.785156 86.980469 C 661.988281 85.945312 667.21875 85.035156 672.46875 84.257812 C 677.71875 83.480469 682.984375 82.828125 688.265625 82.308594 C 693.546875 81.789062 698.839844 81.398438 704.140625 81.136719 C 709.441406 80.878906 714.746094 80.746094 720.054688 80.746094 C 725.359375 80.746094 730.664062 80.878906 735.964844 81.136719 C 741.265625 81.398438 746.558594 81.789062 751.839844 82.308594 C 757.121094 82.828125 762.390625 83.480469 767.640625 84.257812 C 772.890625 85.035156 778.117188 85.945312 783.320312 86.980469 C 788.527344 88.015625 793.703125 89.175781 798.851562 90.46875 C 804 91.757812 809.117188 93.171875 814.195312 94.710938 C 819.273438 96.253906 824.3125 97.917969 829.308594 99.707031 C 834.304688 101.492188 839.257812 103.402344 844.160156 105.433594 C 849.0625 107.464844 853.914062 109.617188 858.710938 111.882812 C 863.507812 114.152344 868.25 116.539062 872.929688 119.042969 C 877.609375 121.542969 882.226562 124.160156 886.78125 126.886719 C 891.332031 129.617188 895.816406 132.453125 900.226562 135.402344 C 904.640625 138.351562 908.980469 141.40625 913.242188 144.570312 C 917.503906 147.730469 921.6875 150.996094 925.789062 154.363281 C 929.894531 157.730469 933.910156 161.195312 937.84375 164.757812 C 941.777344 168.324219 945.617188 171.980469 949.371094 175.734375 C 953.125 179.488281 956.785156 183.332031 960.347656 187.261719 C 963.914062 191.195312 967.378906 195.214844 970.746094 199.316406 C 974.113281 203.417969 977.375 207.601562 980.539062 211.863281 C 983.699219 216.128906 986.753906 220.464844 989.703125 224.878906 C 992.652344 229.292969 995.492188 233.773438 998.21875 238.328125 C 1000.949219 242.878906 1003.5625 247.496094 1006.066406 252.175781 C 1008.566406 256.859375 1010.953125 261.597656 1013.222656 266.394531 C 1015.492188 271.191406 1017.640625 276.042969 1019.671875 280.945312 C 1021.703125 285.851562 1023.613281 290.800781 1025.402344 295.796875 C 1027.1875 300.796875 1028.855469 305.832031 1030.394531 310.914062 C 1031.933594 315.992188 1033.351562 321.105469 1034.640625 326.253906 C 1035.929688 331.402344 1037.09375 336.578125 1038.128906 341.785156 C 1039.164062 346.988281 1040.070312 352.21875 1040.847656 357.46875 C 1041.628906 362.71875 1042.277344 367.984375 1042.796875 373.265625 C 1043.316406 378.546875 1043.707031 383.839844 1043.96875 389.140625 C 1044.230469 394.441406 1044.359375 399.746094 1044.359375 405.054688 Z M 1044.359375 405.054688 " fill-opacity="1" fill-rule="nonzero"/><g clip-path="url(#2b55da3bb8)"><path fill="#00c99f" d="M 408.71875 696.929688 C 408.71875 697.566406 408.6875 698.203125 408.625 698.835938 C 408.5625 699.46875 408.46875 700.097656 408.347656 700.722656 C 408.222656 701.347656 408.066406 701.96875 407.882812 702.578125 C 407.695312 703.1875 407.484375 703.785156 407.238281 704.375 C 406.996094 704.964844 406.722656 705.539062 406.421875 706.101562 C 406.121094 706.664062 405.792969 707.207031 405.441406 707.738281 C 405.085938 708.269531 404.707031 708.78125 404.304688 709.273438 C 403.898438 709.765625 403.472656 710.238281 403.019531 710.6875 C 402.570312 711.136719 402.097656 711.566406 401.605469 711.96875 C 401.113281 712.375 400.601562 712.753906 400.070312 713.105469 C 399.542969 713.460938 398.996094 713.789062 398.433594 714.089844 C 397.871094 714.390625 397.296875 714.660156 396.707031 714.90625 C 396.121094 715.148438 395.519531 715.363281 394.910156 715.550781 C 394.300781 715.734375 393.683594 715.886719 393.058594 716.011719 C 392.433594 716.136719 391.804688 716.230469 391.167969 716.292969 C 390.535156 716.355469 389.898438 716.386719 389.261719 716.386719 C 388.625 716.386719 387.988281 716.355469 387.355469 716.292969 C 386.71875 716.230469 386.089844 716.136719 385.464844 716.011719 C 384.839844 715.886719 384.222656 715.734375 383.613281 715.550781 C 383.003906 715.363281 382.402344 715.148438 381.816406 714.90625 C 381.226562 714.660156 380.652344 714.390625 380.089844 714.089844 C 379.527344 713.789062 378.980469 713.460938 378.453125 713.105469 C 377.921875 712.753906 377.410156 712.375 376.917969 711.96875 C 376.425781 711.566406 375.953125 711.136719 375.503906 710.6875 C 375.050781 710.238281 374.625 709.765625 374.21875 709.273438 C 373.816406 708.78125 373.4375 708.269531 373.082031 707.738281 C 372.730469 707.207031 372.402344 706.664062 372.101562 706.101562 C 371.800781 705.539062 371.527344 704.964844 371.285156 704.375 C 371.039062 703.785156 370.828125 703.1875 370.640625 702.578125 C 370.457031 701.96875 370.300781 701.347656 370.175781 700.722656 C 370.054688 700.097656 369.960938 699.46875 369.898438 698.835938 C 369.835938 698.203125 369.804688 697.566406 369.804688 696.929688 C 369.804688 696.292969 369.835938 695.65625 369.898438 695.019531 C 369.960938 694.386719 370.054688 693.757812 370.175781 693.132812 C 370.300781 692.507812 370.457031 691.890625 370.640625 691.28125 C 370.828125 690.671875 371.039062 690.070312 371.285156 689.480469 C 371.527344 688.894531 371.800781 688.316406 372.101562 687.753906 C 372.402344 687.195312 372.730469 686.648438 373.082031 686.117188 C 373.4375 685.589844 373.816406 685.078125 374.21875 684.585938 C 374.625 684.089844 375.050781 683.621094 375.503906 683.167969 C 375.953125 682.71875 376.425781 682.292969 376.917969 681.886719 C 377.410156 681.484375 377.921875 681.101562 378.453125 680.75 C 378.980469 680.394531 379.527344 680.066406 380.089844 679.769531 C 380.652344 679.46875 381.226562 679.195312 381.816406 678.949219 C 382.402344 678.707031 383.003906 678.492188 383.613281 678.308594 C 384.222656 678.121094 384.839844 677.96875 385.464844 677.84375 C 386.089844 677.71875 386.71875 677.625 387.355469 677.5625 C 387.988281 677.5 388.625 677.46875 389.261719 677.46875 C 389.898438 677.46875 390.535156 677.5 391.167969 677.5625 C 391.804688 677.625 392.433594 677.71875 393.058594 677.84375 C 393.683594 677.96875 394.300781 678.121094 394.910156 678.308594 C 395.519531 678.492188 396.121094 678.707031 396.707031 678.949219 C 397.296875 679.195312 397.871094 679.46875 398.433594 679.769531 C 398.996094 680.066406 399.542969 680.394531 400.070312 680.75 C 400.601562 681.101562 401.113281 681.484375 401.605469 681.886719 C 402.097656 682.292969 402.570312 682.71875 403.019531 683.167969 C 403.472656 683.621094 403.898438 684.089844 404.304688 684.585938 C 404.707031 685.078125 405.085938 685.589844 405.441406 686.117188 C 405.792969 686.648438 406.121094 687.195312 406.421875 687.753906 C 406.722656 688.316406 406.996094 688.894531 407.238281 689.480469 C 407.484375 690.070312 407.695312 690.671875 407.882812 691.28125 C 408.066406 691.890625 408.222656 692.507812 408.347656 693.132812 C 408.46875 693.757812 408.5625 694.386719 408.625 695.019531 C 408.6875 695.65625 408.71875 696.292969 408.71875 696.929688 Z M 408.71875 696.929688 " fill-opacity="1" fill-rule="nonzero"/></g><g clip-path="url(#b94732f4cc)"><path fill="#ff4d69" d="M 486.554688 74.261719 C 486.554688 74.898438 486.523438 75.535156 486.460938 76.167969 C 486.398438 76.804688 486.304688 77.433594 486.179688 78.058594 C 486.054688 78.683594 485.902344 79.300781 485.714844 79.910156 C 485.53125 80.519531 485.316406 81.121094 485.070312 81.707031 C 484.828125 82.296875 484.554688 82.871094 484.253906 83.433594 C 483.957031 83.996094 483.628906 84.542969 483.273438 85.070312 C 482.921875 85.601562 482.539062 86.113281 482.136719 86.605469 C 481.730469 87.097656 481.304688 87.570312 480.855469 88.019531 C 480.402344 88.472656 479.933594 88.898438 479.4375 89.304688 C 478.945312 89.707031 478.433594 90.085938 477.90625 90.441406 C 477.375 90.792969 476.828125 91.121094 476.269531 91.421875 C 475.707031 91.722656 475.128906 91.996094 474.542969 92.238281 C 473.953125 92.484375 473.351562 92.695312 472.742188 92.882812 C 472.132812 93.066406 471.515625 93.222656 470.890625 93.347656 C 470.265625 93.46875 469.636719 93.5625 469.003906 93.625 C 468.367188 93.6875 467.730469 93.71875 467.09375 93.71875 C 466.457031 93.71875 465.820312 93.6875 465.1875 93.625 C 464.554688 93.5625 463.925781 93.46875 463.300781 93.347656 C 462.675781 93.222656 462.054688 93.066406 461.445312 92.882812 C 460.835938 92.695312 460.238281 92.484375 459.648438 92.238281 C 459.058594 91.996094 458.484375 91.722656 457.921875 91.421875 C 457.359375 91.121094 456.816406 90.792969 456.285156 90.441406 C 455.753906 90.085938 455.242188 89.707031 454.75 89.304688 C 454.257812 88.898438 453.785156 88.472656 453.335938 88.019531 C 452.886719 87.570312 452.457031 87.097656 452.054688 86.605469 C 451.648438 86.113281 451.269531 85.601562 450.917969 85.070312 C 450.5625 84.542969 450.234375 83.996094 449.933594 83.433594 C 449.632812 82.871094 449.363281 82.296875 449.117188 81.707031 C 448.875 81.121094 448.660156 80.519531 448.472656 79.910156 C 448.289062 79.300781 448.136719 78.683594 448.011719 78.058594 C 447.886719 77.433594 447.792969 76.804688 447.730469 76.167969 C 447.667969 75.535156 447.636719 74.898438 447.636719 74.261719 C 447.636719 73.625 447.667969 72.988281 447.730469 72.355469 C 447.792969 71.71875 447.886719 71.089844 448.011719 70.464844 C 448.136719 69.839844 448.289062 69.222656 448.472656 68.613281 C 448.660156 68.003906 448.875 67.402344 449.117188 66.816406 C 449.363281 66.226562 449.632812 65.652344 449.933594 65.089844 C 450.234375 64.527344 450.5625 63.980469 450.917969 63.453125 C 451.269531 62.921875 451.648438 62.410156 452.054688 61.917969 C 452.457031 61.425781 452.886719 60.953125 453.335938 60.503906 C 453.785156 60.050781 454.257812 59.625 454.75 59.21875 C 455.242188 58.816406 455.753906 58.4375 456.285156 58.082031 C 456.816406 57.730469 457.359375 57.402344 457.921875 57.101562 C 458.484375 56.800781 459.058594 56.527344 459.648438 56.285156 C 460.238281 56.039062 460.835938 55.828125 461.445312 55.640625 C 462.054688 55.457031 462.675781 55.300781 463.300781 55.175781 C 463.925781 55.054688 464.554688 54.960938 465.1875 54.898438 C 465.820312 54.835938 466.457031 54.804688 467.09375 54.804688 C 467.730469 54.804688 468.367188 54.835938 469.003906 54.898438 C 469.636719 54.960938 470.265625 55.054688 470.890625 55.175781 C 471.515625 55.300781 472.132812 55.457031 472.742188 55.640625 C 473.351562 55.828125 473.953125 56.039062 474.542969 56.285156 C 475.128906 56.527344 475.707031 56.800781 476.269531 57.101562 C 476.828125 57.402344 477.375 57.730469 477.90625 58.082031 C 478.433594 58.4375 478.945312 58.816406 479.4375 59.21875 C 479.933594 59.625 480.402344 60.050781 480.855469 60.503906 C 481.304688 60.953125 481.730469 61.425781 482.136719 61.917969 C 482.539062 62.410156 482.921875 62.921875 483.273438 63.453125 C 483.628906 63.980469 483.957031 64.527344 484.253906 65.089844 C 484.554688 65.652344 484.828125 66.226562 485.070312 66.816406 C 485.316406 67.402344 485.53125 68.003906 485.714844 68.613281 C 485.902344 69.222656 486.054688 69.839844 486.179688 70.464844 C 486.304688 71.089844 486.398438 71.71875 486.460938 72.355469 C 486.523438 72.988281 486.554688 73.625 486.554688 74.261719 Z M 486.554688 74.261719 " fill-opacity="1" fill-rule="nonzero"/></g><path fill="#00c99f" d="M 979.496094 106.691406 C 979.496094 107.328125 979.464844 107.964844 979.402344 108.597656 C 979.339844 109.234375 979.25 109.863281 979.125 110.488281 C 979 111.113281 978.84375 111.730469 978.660156 112.339844 C 978.476562 112.949219 978.261719 113.550781 978.015625 114.140625 C 977.773438 114.726562 977.5 115.304688 977.199219 115.863281 C 976.898438 116.425781 976.574219 116.972656 976.21875 117.503906 C 975.863281 118.03125 975.484375 118.542969 975.082031 119.035156 C 974.675781 119.527344 974.25 120 973.796875 120.453125 C 973.347656 120.902344 972.875 121.328125 972.382812 121.734375 C 971.890625 122.136719 971.378906 122.515625 970.851562 122.871094 C 970.320312 123.226562 969.773438 123.550781 969.210938 123.851562 C 968.648438 124.152344 968.074219 124.425781 967.484375 124.667969 C 966.898438 124.914062 966.296875 125.128906 965.6875 125.3125 C 965.078125 125.496094 964.460938 125.652344 963.835938 125.777344 C 963.210938 125.902344 962.582031 125.996094 961.945312 126.058594 C 961.3125 126.121094 960.675781 126.152344 960.039062 126.152344 C 959.402344 126.152344 958.765625 126.121094 958.132812 126.058594 C 957.496094 125.996094 956.867188 125.902344 956.242188 125.777344 C 955.617188 125.652344 955 125.496094 954.390625 125.3125 C 953.78125 125.128906 953.183594 124.914062 952.59375 124.667969 C 952.003906 124.425781 951.429688 124.152344 950.867188 123.851562 C 950.304688 123.550781 949.757812 123.226562 949.230469 122.871094 C 948.699219 122.515625 948.1875 122.136719 947.695312 121.734375 C 947.203125 121.328125 946.730469 120.902344 946.28125 120.453125 C 945.828125 120 945.402344 119.527344 944.996094 119.035156 C 944.59375 118.542969 944.214844 118.03125 943.859375 117.503906 C 943.507812 116.972656 943.179688 116.425781 942.878906 115.863281 C 942.578125 115.304688 942.304688 114.726562 942.0625 114.140625 C 941.820312 113.550781 941.605469 112.949219 941.417969 112.339844 C 941.234375 111.730469 941.078125 111.113281 940.953125 110.488281 C 940.832031 109.863281 940.738281 109.234375 940.675781 108.597656 C 940.613281 107.964844 940.582031 107.328125 940.582031 106.691406 C 940.582031 106.054688 940.613281 105.417969 940.675781 104.785156 C 940.738281 104.152344 940.832031 103.519531 940.953125 102.894531 C 941.078125 102.269531 941.234375 101.652344 941.417969 101.042969 C 941.605469 100.433594 941.820312 99.835938 942.0625 99.246094 C 942.304688 98.65625 942.578125 98.082031 942.878906 97.519531 C 943.179688 96.957031 943.507812 96.410156 943.859375 95.882812 C 944.214844 95.351562 944.59375 94.839844 944.996094 94.347656 C 945.402344 93.855469 945.828125 93.382812 946.28125 92.933594 C 946.730469 92.484375 947.203125 92.054688 947.695312 91.652344 C 948.1875 91.246094 948.699219 90.867188 949.230469 90.511719 C 949.757812 90.160156 950.304688 89.832031 950.867188 89.53125 C 951.429688 89.230469 952.003906 88.960938 952.59375 88.714844 C 953.183594 88.472656 953.78125 88.257812 954.390625 88.070312 C 955 87.886719 955.617188 87.730469 956.242188 87.609375 C 956.867188 87.484375 957.496094 87.390625 958.132812 87.328125 C 958.765625 87.265625 959.402344 87.234375 960.039062 87.234375 C 960.675781 87.234375 961.3125 87.265625 961.945312 87.328125 C 962.582031 87.390625 963.210938 87.484375 963.835938 87.609375 C 964.460938 87.730469 965.078125 87.886719 965.6875 88.070312 C 966.296875 88.257812 966.898438 88.472656 967.484375 88.714844 C 968.074219 88.960938 968.648438 89.230469 969.210938 89.53125 C 969.773438 89.832031 970.320312 90.160156 970.851562 90.511719 C 971.378906 90.867188 971.890625 91.246094 972.382812 91.652344 C 972.875 92.054688 973.347656 92.484375 973.796875 92.933594 C 974.25 93.382812 974.675781 93.855469 975.082031 94.347656 C 975.484375 94.839844 975.863281 95.351562 976.21875 95.882812 C 976.574219 96.410156 976.898438 96.957031 977.199219 97.519531 C 977.5 98.082031 977.773438 98.65625 978.015625 99.246094 C 978.261719 99.835938 978.476562 100.433594 978.660156 101.042969 C 978.84375 101.652344 979 102.269531 979.125 102.894531 C 979.25 103.519531 979.339844 104.152344 979.402344 104.785156 C 979.464844 105.417969 979.496094 106.054688 979.496094 106.691406 Z M 979.496094 106.691406 " fill-opacity="1" fill-rule="nonzero"/><g clip-path="url(#bbb01a119b)"><path fill="#ffa100" d="M 1070.304688 405.054688 C 1070.304688 405.691406 1070.273438 406.328125 1070.210938 406.960938 C 1070.148438 407.59375 1070.054688 408.222656 1069.929688 408.847656 C 1069.804688 409.472656 1069.652344 410.09375 1069.464844 410.703125 C 1069.28125 411.3125 1069.066406 411.910156 1068.820312 412.5 C 1068.578125 413.089844 1068.304688 413.664062 1068.003906 414.226562 C 1067.707031 414.789062 1067.378906 415.332031 1067.023438 415.863281 C 1066.671875 416.394531 1066.289062 416.90625 1065.886719 417.398438 C 1065.480469 417.890625 1065.054688 418.363281 1064.605469 418.8125 C 1064.152344 419.261719 1063.683594 419.691406 1063.1875 420.09375 C 1062.695312 420.5 1062.183594 420.878906 1061.65625 421.230469 C 1061.125 421.585938 1060.578125 421.914062 1060.015625 422.214844 C 1059.457031 422.515625 1058.878906 422.785156 1058.292969 423.03125 C 1057.703125 423.273438 1057.101562 423.488281 1056.492188 423.675781 C 1055.882812 423.859375 1055.265625 424.011719 1054.640625 424.136719 C 1054.015625 424.261719 1053.386719 424.355469 1052.753906 424.417969 C 1052.117188 424.480469 1051.480469 424.511719 1050.84375 424.511719 C 1050.207031 424.511719 1049.570312 424.480469 1048.9375 424.417969 C 1048.304688 424.355469 1047.675781 424.261719 1047.046875 424.136719 C 1046.421875 424.011719 1045.804688 423.859375 1045.195312 423.671875 C 1044.585938 423.488281 1043.988281 423.273438 1043.398438 423.03125 C 1042.808594 422.785156 1042.234375 422.515625 1041.671875 422.214844 C 1041.109375 421.914062 1040.5625 421.585938 1040.035156 421.230469 C 1039.503906 420.878906 1038.992188 420.5 1038.5 420.09375 C 1038.007812 419.691406 1037.535156 419.261719 1037.085938 418.8125 C 1036.636719 418.363281 1036.207031 417.890625 1035.804688 417.398438 C 1035.398438 416.90625 1035.019531 416.394531 1034.664062 415.863281 C 1034.3125 415.332031 1033.984375 414.789062 1033.683594 414.226562 C 1033.382812 413.664062 1033.113281 413.089844 1032.867188 412.5 C 1032.625 411.910156 1032.410156 411.3125 1032.222656 410.703125 C 1032.039062 410.09375 1031.886719 409.472656 1031.761719 408.847656 C 1031.636719 408.222656 1031.542969 407.59375 1031.480469 406.960938 C 1031.417969 406.328125 1031.386719 405.691406 1031.386719 405.054688 C 1031.386719 404.417969 1031.417969 403.78125 1031.480469 403.144531 C 1031.542969 402.511719 1031.636719 401.882812 1031.761719 401.257812 C 1031.886719 400.632812 1032.039062 400.015625 1032.222656 399.40625 C 1032.410156 398.796875 1032.625 398.195312 1032.867188 397.605469 C 1033.113281 397.019531 1033.382812 396.441406 1033.683594 395.878906 C 1033.984375 395.320312 1034.3125 394.773438 1034.664062 394.242188 C 1035.019531 393.714844 1035.398438 393.203125 1035.804688 392.710938 C 1036.207031 392.214844 1036.636719 391.746094 1037.085938 391.292969 C 1037.535156 390.84375 1038.007812 390.417969 1038.5 390.011719 C 1038.992188 389.609375 1039.503906 389.226562 1040.035156 388.875 C 1040.5625 388.519531 1041.109375 388.191406 1041.671875 387.894531 C 1042.234375 387.59375 1042.808594 387.320312 1043.398438 387.078125 C 1043.988281 386.832031 1044.585938 386.617188 1045.195312 386.433594 C 1045.804688 386.246094 1046.421875 386.09375 1047.046875 385.96875 C 1047.675781 385.84375 1048.304688 385.75 1048.9375 385.6875 C 1049.570312 385.625 1050.207031 385.59375 1050.84375 385.59375 C 1051.480469 385.59375 1052.117188 385.625 1052.753906 385.6875 C 1053.386719 385.75 1054.015625 385.84375 1054.640625 385.96875 C 1055.265625 386.09375 1055.882812 386.246094 1056.492188 386.433594 C 1057.101562 386.617188 1057.703125 386.832031 1058.292969 387.078125 C 1058.878906 387.320312 1059.457031 387.59375 1060.015625 387.894531 C 1060.578125 388.191406 1061.125 388.519531 1061.65625 388.875 C 1062.183594 389.226562 1062.695312 389.609375 1063.1875 390.011719 C 1063.683594 390.417969 1064.152344 390.84375 1064.605469 391.292969 C 1065.054688 391.746094 1065.480469 392.214844 1065.886719 392.710938 C 1066.289062 393.203125 1066.671875 393.714844 1067.023438 394.242188 C 1067.378906 394.773438 1067.707031 395.320312 1068.003906 395.878906 C 1068.304688 396.441406 1068.578125 397.019531 1068.820312 397.605469 C 1069.066406 398.195312 1069.28125 398.796875 1069.464844 399.40625 C 1069.652344 400.015625 1069.804688 400.632812 1069.929688 401.257812 C 1070.054688 401.882812 1070.148438 402.511719 1070.210938 403.144531 C 1070.273438 403.78125 1070.304688 404.417969 1070.304688 405.054688 Z M 1070.304688 405.054688 " fill-opacity="1" fill-rule="nonzero"/></g><path fill="#a5bced" d="M 467.09375 203.984375 L 908.152344 203.984375 C 909.425781 203.984375 910.695312 204.046875 911.964844 204.171875 C 913.234375 204.296875 914.492188 204.484375 915.742188 204.730469 C 916.992188 204.980469 918.226562 205.289062 919.449219 205.660156 C 920.667969 206.03125 921.867188 206.457031 923.042969 206.945312 C 924.222656 207.433594 925.371094 207.976562 926.496094 208.578125 C 927.621094 209.179688 928.710938 209.835938 929.773438 210.542969 C 930.832031 211.25 931.855469 212.007812 932.839844 212.816406 C 933.824219 213.625 934.765625 214.480469 935.667969 215.382812 C 936.570312 216.285156 937.425781 217.226562 938.234375 218.210938 C 939.042969 219.199219 939.800781 220.21875 940.507812 221.28125 C 941.214844 222.339844 941.871094 223.429688 942.472656 224.554688 C 943.074219 225.679688 943.617188 226.832031 944.105469 228.007812 C 944.59375 229.183594 945.019531 230.382812 945.390625 231.605469 C 945.761719 232.824219 946.070312 234.058594 946.320312 235.308594 C 946.566406 236.558594 946.753906 237.816406 946.878906 239.085938 C 947.003906 240.355469 947.066406 241.625 947.066406 242.902344 L 947.066406 554.234375 L 428.179688 554.234375 L 428.179688 242.902344 C 428.179688 241.625 428.242188 240.355469 428.367188 239.085938 C 428.492188 237.816406 428.675781 236.558594 428.925781 235.308594 C 429.175781 234.058594 429.484375 232.824219 429.855469 231.605469 C 430.222656 230.382812 430.652344 229.183594 431.140625 228.007812 C 431.628906 226.832031 432.171875 225.679688 432.773438 224.554688 C 433.375 223.429688 434.027344 222.339844 434.738281 221.28125 C 435.445312 220.21875 436.203125 219.199219 437.011719 218.210938 C 437.820312 217.226562 438.675781 216.285156 439.578125 215.382812 C 440.476562 214.480469 441.421875 213.625 442.40625 212.816406 C 443.390625 212.007812 444.414062 211.25 445.472656 210.542969 C 446.535156 209.835938 447.625 209.179688 448.75 208.578125 C 449.875 207.976562 451.023438 207.433594 452.203125 206.945312 C 453.378906 206.457031 454.578125 206.03125 455.796875 205.660156 C 457.019531 205.289062 458.253906 204.980469 459.503906 204.730469 C 460.753906 204.484375 462.011719 204.296875 463.28125 204.171875 C 464.550781 204.046875 465.820312 203.984375 467.09375 203.984375 Z M 467.09375 203.984375 " fill-opacity="1" fill-rule="nonzero"/><path fill="#ffffff" d="M 467.09375 229.929688 L 908.152344 229.929688 C 909.003906 229.929688 909.847656 230.011719 910.679688 230.175781 C 911.515625 230.34375 912.328125 230.589844 913.113281 230.914062 C 913.902344 231.242188 914.648438 231.640625 915.359375 232.113281 C 916.066406 232.585938 916.722656 233.125 917.324219 233.726562 C 917.925781 234.332031 918.464844 234.984375 918.9375 235.695312 C 919.410156 236.402344 919.808594 237.148438 920.136719 237.9375 C 920.460938 238.722656 920.707031 239.535156 920.875 240.371094 C 921.039062 241.207031 921.121094 242.050781 921.121094 242.902344 L 921.121094 515.316406 C 921.121094 516.167969 921.039062 517.011719 920.875 517.847656 C 920.707031 518.683594 920.460938 519.496094 920.136719 520.28125 C 919.808594 521.070312 919.410156 521.816406 918.9375 522.523438 C 918.464844 523.234375 917.925781 523.886719 917.324219 524.488281 C 916.722656 525.09375 916.066406 525.628906 915.359375 526.101562 C 914.648438 526.578125 913.902344 526.976562 913.113281 527.300781 C 912.328125 527.628906 911.515625 527.875 910.679688 528.039062 C 909.847656 528.207031 909.003906 528.289062 908.152344 528.289062 L 467.09375 528.289062 C 466.242188 528.289062 465.398438 528.207031 464.5625 528.039062 C 463.730469 527.875 462.917969 527.628906 462.128906 527.300781 C 461.34375 526.976562 460.597656 526.578125 459.886719 526.101562 C 459.179688 525.628906 458.523438 525.09375 457.921875 524.488281 C 457.320312 523.886719 456.78125 523.234375 456.308594 522.523438 C 455.835938 521.816406 455.4375 521.070312 455.109375 520.28125 C 454.785156 519.496094 454.539062 518.683594 454.371094 517.847656 C 454.207031 517.011719 454.121094 516.167969 454.121094 515.316406 L 454.121094 242.902344 C 454.121094 242.050781 454.207031 241.207031 454.371094 240.371094 C 454.539062 239.535156 454.785156 238.722656 455.109375 237.9375 C 455.4375 237.148438 455.835938 236.402344 456.308594 235.695312 C 456.78125 234.984375 457.320312 234.332031 457.921875 233.726562 C 458.523438 233.125 459.179688 232.585938 459.886719 232.113281 C 460.597656 231.640625 461.34375 231.242188 462.128906 230.914062 C 462.917969 230.589844 463.730469 230.34375 464.5625 230.175781 C 465.398438 230.011719 466.242188 229.929688 467.09375 229.929688 Z M 467.09375 229.929688 " fill-opacity="1" fill-rule="nonzero"/><path fill="#e7efff" d="M 454.121094 502.34375 L 921.121094 502.34375 L 921.121094 515.316406 C 921.121094 516.167969 921.039062 517.011719 920.875 517.847656 C 920.707031 518.683594 920.460938 519.496094 920.136719 520.28125 C 919.808594 521.070312 919.410156 521.816406 918.9375 522.523438 C 918.464844 523.234375 917.925781 523.886719 917.324219 524.488281 C 916.722656 525.09375 916.066406 525.628906 915.359375 526.101562 C 914.648438 526.578125 913.902344 526.976562 913.113281 527.300781 C 912.328125 527.628906 911.515625 527.875 910.679688 528.039062 C 909.847656 528.207031 909.003906 528.289062 908.152344 528.289062 L 467.09375 528.289062 C 466.242188 528.289062 465.398438 528.207031 464.5625 528.039062 C 463.730469 527.875 462.917969 527.628906 462.128906 527.300781 C 461.34375 526.976562 460.597656 526.578125 459.886719 526.101562 C 459.179688 525.628906 458.523438 525.09375 457.921875 524.488281 C 457.320312 523.886719 456.78125 523.234375 456.308594 522.523438 C 455.835938 521.816406 455.4375 521.070312 455.109375 520.28125 C 454.785156 519.496094 454.539062 518.683594 454.371094 517.847656 C 454.207031 517.011719 454.121094 516.167969 454.121094 515.316406 Z M 454.121094 502.34375 " fill-opacity="1" fill-rule="nonzero"/><path fill="#4e6aff" d="M 428.179688 554.234375 L 947.066406 554.234375 L 947.066406 580.179688 C 947.066406 581.453125 947.003906 582.722656 946.878906 583.992188 C 946.753906 585.261719 946.566406 586.519531 946.320312 587.769531 C 946.070312 589.019531 945.761719 590.253906 945.390625 591.476562 C 945.023438 592.695312 944.59375 593.894531 944.105469 595.070312 C 943.617188 596.25 943.074219 597.398438 942.472656 598.523438 C 941.871094 599.648438 941.214844 600.738281 940.507812 601.800781 C 939.800781 602.859375 939.042969 603.882812 938.234375 604.867188 C 937.425781 605.851562 936.570312 606.796875 935.667969 607.695312 C 934.765625 608.597656 933.824219 609.453125 932.839844 610.261719 C 931.855469 611.070312 930.832031 611.828125 929.769531 612.535156 C 928.710938 613.246094 927.621094 613.898438 926.496094 614.5 C 925.371094 615.101562 924.222656 615.644531 923.042969 616.132812 C 921.867188 616.621094 920.667969 617.050781 919.449219 617.417969 C 918.226562 617.789062 916.992188 618.097656 915.742188 618.347656 C 914.492188 618.597656 913.234375 618.78125 911.964844 618.90625 C 910.695312 619.03125 909.425781 619.09375 908.152344 619.09375 L 467.09375 619.09375 C 465.820312 619.09375 464.550781 619.03125 463.28125 618.90625 C 462.011719 618.78125 460.753906 618.597656 459.503906 618.347656 C 458.253906 618.097656 457.019531 617.789062 455.796875 617.417969 C 454.578125 617.050781 453.378906 616.621094 452.203125 616.132812 C 451.023438 615.644531 449.875 615.101562 448.75 614.5 C 447.625 613.898438 446.535156 613.246094 445.472656 612.535156 C 444.414062 611.828125 443.390625 611.070312 442.40625 610.261719 C 441.421875 609.453125 440.476562 608.597656 439.578125 607.695312 C 438.675781 606.796875 437.820312 605.851562 437.011719 604.867188 C 436.203125 603.882812 435.445312 602.859375 434.738281 601.800781 C 434.027344 600.738281 433.375 599.648438 432.773438 598.523438 C 432.171875 597.398438 431.628906 596.25 431.140625 595.070312 C 430.652344 593.894531 430.222656 592.695312 429.855469 591.476562 C 429.484375 590.253906 429.175781 589.019531 428.925781 587.769531 C 428.675781 586.519531 428.492188 585.261719 428.367188 583.992188 C 428.242188 582.722656 428.179688 581.453125 428.179688 580.179688 Z M 428.179688 554.234375 " fill-opacity="1" fill-rule="nonzero"/><path fill="#323fd4" d="M 758.96875 683.957031 L 616.277344 683.957031 C 631.648438 658.011719 635.734375 648.867188 635.734375 619.09375 L 739.511719 619.09375 C 739.511719 647.894531 743.339844 658.011719 758.96875 683.957031 Z M 758.96875 683.957031 " fill-opacity="1" fill-rule="nonzero"/><path fill="#4e6aff" d="M 810.859375 696.929688 C 810.859375 697.78125 810.777344 698.625 810.609375 699.460938 C 810.445312 700.292969 810.199219 701.105469 809.871094 701.894531 C 809.546875 702.679688 809.144531 703.425781 808.671875 704.136719 C 808.199219 704.84375 807.660156 705.5 807.058594 706.101562 C 806.457031 706.703125 805.800781 707.242188 805.09375 707.714844 C 804.386719 708.1875 803.636719 708.585938 802.851562 708.914062 C 802.0625 709.238281 801.253906 709.484375 800.417969 709.652344 C 799.582031 709.816406 798.738281 709.902344 797.886719 709.902344 L 609.269531 709.902344 C 594.386719 704.488281 579.988281 698 566.074219 690.441406 C 566.644531 689.453125 567.335938 688.554688 568.144531 687.746094 C 568.953125 686.9375 569.851562 686.25 570.84375 685.679688 C 571.835938 685.113281 572.882812 684.679688 573.988281 684.386719 C 575.09375 684.09375 576.214844 683.953125 577.359375 683.957031 L 797.886719 683.957031 C 798.738281 683.957031 799.582031 684.039062 800.417969 684.207031 C 801.253906 684.371094 802.0625 684.617188 802.851562 684.945312 C 803.636719 685.269531 804.386719 685.667969 805.09375 686.140625 C 805.800781 686.617188 806.457031 687.152344 807.058594 687.753906 C 807.660156 688.359375 808.199219 689.011719 808.671875 689.722656 C 809.144531 690.429688 809.546875 691.175781 809.871094 691.964844 C 810.199219 692.75 810.445312 693.5625 810.609375 694.398438 C 810.777344 695.234375 810.859375 696.078125 810.859375 696.929688 Z M 810.859375 696.929688 " fill-opacity="1" fill-rule="nonzero"/><path fill="#ffffff" d="M 700.59375 586.664062 C 700.59375 587.515625 700.511719 588.359375 700.347656 589.195312 C 700.179688 590.03125 699.933594 590.839844 699.609375 591.628906 C 699.28125 592.414062 698.882812 593.164062 698.410156 593.871094 C 697.933594 594.578125 697.398438 595.234375 696.796875 595.835938 C 696.191406 596.441406 695.539062 596.976562 694.828125 597.449219 C 694.121094 597.921875 693.375 598.324219 692.585938 598.648438 C 691.800781 598.976562 690.988281 599.222656 690.152344 599.386719 C 689.316406 599.554688 688.472656 599.636719 687.621094 599.636719 C 686.769531 599.636719 685.925781 599.554688 685.09375 599.386719 C 684.257812 599.222656 683.445312 598.976562 682.660156 598.648438 C 681.871094 598.324219 681.125 597.921875 680.414062 597.449219 C 679.707031 596.976562 679.050781 596.441406 678.449219 595.835938 C 677.847656 595.234375 677.308594 594.578125 676.835938 593.871094 C 676.363281 593.164062 675.964844 592.414062 675.636719 591.628906 C 675.3125 590.839844 675.066406 590.03125 674.898438 589.195312 C 674.734375 588.359375 674.652344 587.515625 674.652344 586.664062 C 674.652344 585.8125 674.734375 584.96875 674.898438 584.132812 C 675.066406 583.296875 675.3125 582.488281 675.636719 581.699219 C 675.964844 580.914062 676.363281 580.164062 676.835938 579.457031 C 677.308594 578.75 677.847656 578.09375 678.449219 577.492188 C 679.050781 576.890625 679.707031 576.351562 680.414062 575.878906 C 681.125 575.40625 681.871094 575.003906 682.660156 574.679688 C 683.445312 574.355469 684.257812 574.109375 685.09375 573.941406 C 685.925781 573.773438 686.769531 573.691406 687.621094 573.691406 C 688.472656 573.691406 689.316406 573.773438 690.152344 573.941406 C 690.988281 574.109375 691.800781 574.355469 692.585938 574.679688 C 693.375 575.003906 694.121094 575.40625 694.828125 575.878906 C 695.539062 576.351562 696.191406 576.890625 696.796875 577.492188 C 697.398438 578.09375 697.933594 578.75 698.410156 579.457031 C 698.882812 580.164062 699.28125 580.914062 699.609375 581.699219 C 699.933594 582.488281 700.179688 583.296875 700.347656 584.132812 C 700.511719 584.96875 700.59375 585.8125 700.59375 586.664062 Z M 700.59375 586.664062 " fill-opacity="1" fill-rule="nonzero"/><path fill="#a5bced" d="M 493.039062 255.871094 L 687.621094 255.871094 C 688.472656 255.871094 689.316406 255.957031 690.152344 256.121094 C 690.988281 256.289062 691.800781 256.535156 692.585938 256.859375 C 693.375 257.1875 694.121094 257.585938 694.828125 258.058594 C 695.539062 258.53125 696.191406 259.070312 696.796875 259.671875 C 697.398438 260.273438 697.933594 260.929688 698.410156 261.636719 C 698.882812 262.347656 699.28125 263.09375 699.609375 263.878906 C 699.933594 264.667969 700.179688 265.480469 700.347656 266.3125 C 700.511719 267.148438 700.59375 267.992188 700.59375 268.84375 L 700.59375 385.59375 C 700.59375 386.445312 700.511719 387.289062 700.347656 388.125 C 700.179688 388.960938 699.933594 389.773438 699.609375 390.558594 C 699.28125 391.347656 698.882812 392.09375 698.410156 392.800781 C 697.933594 393.511719 697.398438 394.164062 696.796875 394.769531 C 696.191406 395.371094 695.539062 395.90625 694.828125 396.382812 C 694.121094 396.855469 693.375 397.253906 692.585938 397.578125 C 691.800781 397.90625 690.988281 398.152344 690.152344 398.316406 C 689.316406 398.484375 688.472656 398.566406 687.621094 398.566406 L 493.039062 398.566406 C 492.1875 398.566406 491.34375 398.484375 490.507812 398.316406 C 489.671875 398.152344 488.863281 397.90625 488.074219 397.578125 C 487.289062 397.253906 486.539062 396.855469 485.832031 396.382812 C 485.125 395.90625 484.46875 395.371094 483.867188 394.769531 C 483.265625 394.164062 482.726562 393.511719 482.253906 392.800781 C 481.78125 392.09375 481.378906 391.347656 481.054688 390.558594 C 480.730469 389.773438 480.484375 388.960938 480.316406 388.125 C 480.148438 387.289062 480.066406 386.445312 480.066406 385.59375 L 480.066406 268.84375 C 480.066406 267.992188 480.148438 267.148438 480.316406 266.3125 C 480.484375 265.480469 480.730469 264.667969 481.054688 263.878906 C 481.378906 263.09375 481.78125 262.347656 482.253906 261.636719 C 482.726562 260.929688 483.265625 260.273438 483.867188 259.671875 C 484.46875 259.070312 485.125 258.53125 485.832031 258.058594 C 486.539062 257.585938 487.289062 257.1875 488.074219 256.859375 C 488.863281 256.535156 489.671875 256.289062 490.507812 256.121094 C 491.34375 255.957031 492.1875 255.871094 493.039062 255.871094 Z M 493.039062 255.871094 " fill-opacity="1" fill-rule="nonzero"/><path fill="#4e6aff" d="M 687.621094 249.386719 L 493.039062 249.386719 C 492.402344 249.386719 491.765625 249.417969 491.132812 249.480469 C 490.496094 249.542969 489.867188 249.636719 489.242188 249.761719 C 488.617188 249.886719 488 250.039062 487.390625 250.226562 C 486.78125 250.410156 486.183594 250.625 485.59375 250.867188 C 485.003906 251.113281 484.429688 251.382812 483.867188 251.683594 C 483.304688 251.984375 482.757812 252.3125 482.230469 252.667969 C 481.699219 253.019531 481.1875 253.398438 480.695312 253.804688 C 480.203125 254.207031 479.730469 254.636719 479.28125 255.085938 C 478.828125 255.535156 478.402344 256.007812 477.996094 256.5 C 477.59375 256.992188 477.214844 257.503906 476.859375 258.035156 C 476.507812 258.566406 476.179688 259.109375 475.878906 259.671875 C 475.578125 260.234375 475.304688 260.808594 475.0625 261.398438 C 474.820312 261.988281 474.605469 262.585938 474.417969 263.195312 C 474.234375 263.804688 474.078125 264.425781 473.953125 265.050781 C 473.832031 265.675781 473.738281 266.304688 473.675781 266.9375 C 473.613281 267.570312 473.582031 268.207031 473.582031 268.84375 L 473.582031 385.59375 C 473.582031 386.230469 473.613281 386.867188 473.675781 387.503906 C 473.738281 388.136719 473.832031 388.765625 473.953125 389.390625 C 474.078125 390.015625 474.234375 390.632812 474.417969 391.242188 C 474.605469 391.851562 474.820312 392.453125 475.0625 393.042969 C 475.304688 393.628906 475.578125 394.207031 475.878906 394.769531 C 476.179688 395.328125 476.507812 395.875 476.859375 396.40625 C 477.214844 396.933594 477.59375 397.445312 477.996094 397.9375 C 478.402344 398.433594 478.828125 398.902344 479.28125 399.355469 C 479.730469 399.804688 480.203125 400.230469 480.695312 400.636719 C 481.1875 401.039062 481.699219 401.421875 482.230469 401.773438 C 482.757812 402.128906 483.304688 402.457031 483.867188 402.753906 C 484.429688 403.054688 485.003906 403.328125 485.59375 403.570312 C 486.183594 403.816406 486.78125 404.03125 487.390625 404.214844 C 488 404.402344 488.617188 404.554688 489.242188 404.679688 C 489.867188 404.804688 490.496094 404.898438 491.132812 404.960938 C 491.765625 405.023438 492.402344 405.054688 493.039062 405.054688 L 687.621094 405.054688 C 688.261719 405.054688 688.894531 405.023438 689.53125 404.960938 C 690.164062 404.898438 690.792969 404.804688 691.417969 404.679688 C 692.042969 404.554688 692.660156 404.402344 693.269531 404.214844 C 693.882812 404.03125 694.480469 403.816406 695.070312 403.570312 C 695.65625 403.328125 696.234375 403.054688 696.796875 402.753906 C 697.355469 402.457031 697.902344 402.128906 698.433594 401.773438 C 698.964844 401.421875 699.472656 401.039062 699.96875 400.636719 C 700.460938 400.230469 700.929688 399.804688 701.382812 399.355469 C 701.832031 398.902344 702.261719 398.433594 702.664062 397.9375 C 703.070312 397.445312 703.449219 396.933594 703.800781 396.40625 C 704.15625 395.875 704.484375 395.328125 704.785156 394.769531 C 705.082031 394.207031 705.355469 393.628906 705.601562 393.042969 C 705.84375 392.453125 706.058594 391.851562 706.242188 391.242188 C 706.429688 390.632812 706.582031 390.015625 706.707031 389.390625 C 706.832031 388.765625 706.925781 388.136719 706.988281 387.503906 C 707.050781 386.867188 707.082031 386.230469 707.082031 385.59375 L 707.082031 268.84375 C 707.082031 268.207031 707.050781 267.570312 706.988281 266.9375 C 706.925781 266.304688 706.832031 265.675781 706.707031 265.050781 C 706.582031 264.425781 706.429688 263.804688 706.242188 263.195312 C 706.058594 262.585938 705.84375 261.988281 705.601562 261.398438 C 705.355469 260.808594 705.082031 260.234375 704.785156 259.671875 C 704.484375 259.109375 704.15625 258.566406 703.800781 258.035156 C 703.449219 257.503906 703.070312 256.992188 702.664062 256.5 C 702.261719 256.007812 701.832031 255.535156 701.382812 255.085938 C 700.929688 254.636719 700.460938 254.207031 699.96875 253.804688 C 699.472656 253.398438 698.964844 253.019531 698.433594 252.667969 C 697.902344 252.3125 697.355469 251.984375 696.796875 251.683594 C 696.234375 251.382812 695.65625 251.113281 695.070312 250.867188 C 694.480469 250.625 693.882812 250.410156 693.269531 250.226562 C 692.660156 250.039062 692.042969 249.886719 691.417969 249.761719 C 690.792969 249.636719 690.164062 249.542969 689.53125 249.480469 C 688.894531 249.417969 688.261719 249.386719 687.621094 249.386719 Z M 694.109375 270.011719 L 694.109375 384.425781 L 602.589844 327.21875 Z M 590.332031 319.566406 L 498.8125 262.359375 L 681.851562 262.359375 Z M 578.074219 327.21875 L 486.554688 384.425781 L 486.554688 270.011719 Z M 590.332031 334.875 L 681.851562 392.082031 L 498.8125 392.082031 Z M 590.332031 334.875 " fill-opacity="1" fill-rule="nonzero"/><path fill="#ff4d69" d="M 843.289062 262.359375 L 739.511719 262.359375 C 739.085938 262.359375 738.664062 262.316406 738.246094 262.234375 C 737.828125 262.152344 737.421875 262.027344 737.03125 261.867188 C 736.636719 261.703125 736.261719 261.503906 735.90625 261.265625 C 735.554688 261.027344 735.226562 260.761719 734.925781 260.460938 C 734.625 260.15625 734.355469 259.832031 734.117188 259.476562 C 733.882812 259.121094 733.683594 258.75 733.519531 258.355469 C 733.355469 257.960938 733.234375 257.554688 733.148438 257.136719 C 733.066406 256.71875 733.027344 256.296875 733.027344 255.871094 C 733.027344 255.445312 733.066406 255.023438 733.148438 254.609375 C 733.234375 254.191406 733.355469 253.785156 733.519531 253.390625 C 733.683594 252.996094 733.882812 252.625 734.117188 252.269531 C 734.355469 251.914062 734.625 251.585938 734.925781 251.285156 C 735.226562 250.984375 735.554688 250.714844 735.90625 250.480469 C 736.261719 250.242188 736.636719 250.042969 737.03125 249.878906 C 737.421875 249.71875 737.828125 249.59375 738.246094 249.511719 C 738.664062 249.429688 739.085938 249.386719 739.511719 249.386719 L 843.289062 249.386719 C 843.714844 249.386719 844.136719 249.429688 844.554688 249.511719 C 844.972656 249.59375 845.378906 249.71875 845.773438 249.878906 C 846.164062 250.042969 846.539062 250.242188 846.894531 250.480469 C 847.246094 250.714844 847.574219 250.984375 847.875 251.285156 C 848.175781 251.585938 848.445312 251.914062 848.683594 252.269531 C 848.917969 252.625 849.117188 252.996094 849.28125 253.390625 C 849.445312 253.785156 849.566406 254.191406 849.652344 254.609375 C 849.734375 255.023438 849.777344 255.445312 849.777344 255.871094 C 849.777344 256.296875 849.734375 256.71875 849.652344 257.136719 C 849.566406 257.554688 849.445312 257.960938 849.28125 258.355469 C 849.117188 258.75 848.917969 259.121094 848.683594 259.476562 C 848.445312 259.832031 848.175781 260.15625 847.875 260.460938 C 847.574219 260.761719 847.246094 261.027344 846.894531 261.265625 C 846.539062 261.503906 846.164062 261.703125 845.773438 261.867188 C 845.378906 262.027344 844.972656 262.152344 844.554688 262.234375 C 844.136719 262.316406 843.714844 262.359375 843.289062 262.359375 Z M 843.289062 262.359375 " fill-opacity="1" fill-rule="nonzero"/><path fill="#a5bced" d="M 895.179688 294.789062 L 739.511719 294.789062 C 739.085938 294.789062 738.664062 294.746094 738.246094 294.664062 C 737.828125 294.582031 737.421875 294.457031 737.03125 294.296875 C 736.636719 294.132812 736.261719 293.933594 735.90625 293.695312 C 735.554688 293.460938 735.226562 293.191406 734.925781 292.890625 C 734.625 292.589844 734.355469 292.261719 734.117188 291.90625 C 733.882812 291.554688 733.683594 291.179688 733.519531 290.785156 C 733.355469 290.390625 733.234375 289.988281 733.148438 289.570312 C 733.066406 289.152344 733.027344 288.730469 733.027344 288.304688 C 733.027344 287.878906 733.066406 287.457031 733.148438 287.039062 C 733.234375 286.621094 733.355469 286.214844 733.519531 285.820312 C 733.683594 285.429688 733.882812 285.054688 734.117188 284.699219 C 734.355469 284.347656 734.625 284.019531 734.925781 283.71875 C 735.226562 283.414062 735.554688 283.148438 735.90625 282.910156 C 736.261719 282.671875 736.636719 282.472656 737.03125 282.3125 C 737.421875 282.148438 737.828125 282.023438 738.246094 281.941406 C 738.664062 281.859375 739.085938 281.816406 739.511719 281.816406 L 895.179688 281.816406 C 895.605469 281.816406 896.027344 281.859375 896.445312 281.941406 C 896.863281 282.023438 897.265625 282.148438 897.660156 282.3125 C 898.054688 282.472656 898.425781 282.671875 898.78125 282.910156 C 899.136719 283.148438 899.464844 283.414062 899.765625 283.71875 C 900.066406 284.019531 900.335938 284.347656 900.570312 284.699219 C 900.808594 285.054688 901.007812 285.429688 901.171875 285.820312 C 901.332031 286.214844 901.457031 286.621094 901.539062 287.039062 C 901.621094 287.457031 901.664062 287.878906 901.664062 288.304688 C 901.664062 288.730469 901.621094 289.152344 901.539062 289.570312 C 901.457031 289.988281 901.332031 290.390625 901.171875 290.785156 C 901.007812 291.179688 900.808594 291.554688 900.570312 291.90625 C 900.335938 292.261719 900.066406 292.589844 899.765625 292.890625 C 899.464844 293.191406 899.136719 293.460938 898.78125 293.695312 C 898.425781 293.933594 898.054688 294.132812 897.660156 294.296875 C 897.265625 294.457031 896.863281 294.582031 896.445312 294.664062 C 896.027344 294.746094 895.605469 294.789062 895.179688 294.789062 Z M 895.179688 294.789062 " fill-opacity="1" fill-rule="nonzero"/><path fill="#a5bced" d="M 895.179688 327.21875 L 739.511719 327.21875 C 739.085938 327.21875 738.664062 327.179688 738.246094 327.09375 C 737.828125 327.011719 737.421875 326.890625 737.03125 326.726562 C 736.636719 326.5625 736.261719 326.363281 735.90625 326.128906 C 735.554688 325.890625 735.226562 325.621094 734.925781 325.320312 C 734.625 325.019531 734.355469 324.691406 734.117188 324.335938 C 733.882812 323.984375 733.683594 323.609375 733.519531 323.214844 C 733.355469 322.824219 733.234375 322.417969 733.148438 322 C 733.066406 321.582031 733.027344 321.160156 733.027344 320.734375 C 733.027344 320.308594 733.066406 319.886719 733.148438 319.46875 C 733.234375 319.050781 733.355469 318.644531 733.519531 318.25 C 733.683594 317.859375 733.882812 317.484375 734.117188 317.128906 C 734.355469 316.777344 734.625 316.449219 734.925781 316.148438 C 735.226562 315.847656 735.554688 315.578125 735.90625 315.339844 C 736.261719 315.105469 736.636719 314.90625 737.03125 314.742188 C 737.421875 314.578125 737.828125 314.457031 738.246094 314.371094 C 738.664062 314.289062 739.085938 314.246094 739.511719 314.246094 L 895.179688 314.246094 C 895.605469 314.246094 896.027344 314.289062 896.445312 314.371094 C 896.863281 314.457031 897.265625 314.578125 897.660156 314.742188 C 898.054688 314.90625 898.425781 315.105469 898.78125 315.339844 C 899.136719 315.578125 899.464844 315.847656 899.765625 316.148438 C 900.066406 316.449219 900.335938 316.777344 900.570312 317.128906 C 900.808594 317.484375 901.007812 317.859375 901.171875 318.25 C 901.332031 318.644531 901.457031 319.050781 901.539062 319.46875 C 901.621094 319.886719 901.664062 320.308594 901.664062 320.734375 C 901.664062 321.160156 901.621094 321.582031 901.539062 322 C 901.457031 322.417969 901.332031 322.824219 901.171875 323.214844 C 901.007812 323.609375 900.808594 323.984375 900.570312 324.335938 C 900.335938 324.691406 900.066406 325.019531 899.765625 325.320312 C 899.464844 325.621094 899.136719 325.890625 898.78125 326.125 C 898.425781 326.363281 898.054688 326.5625 897.660156 326.726562 C 897.265625 326.890625 896.863281 327.011719 896.445312 327.09375 C 896.027344 327.179688 895.605469 327.21875 895.179688 327.21875 Z M 895.179688 327.21875 " fill-opacity="1" fill-rule="nonzero"/><path fill="#a5bced" d="M 843.289062 359.652344 L 739.511719 359.652344 C 739.085938 359.652344 738.664062 359.609375 738.246094 359.527344 C 737.828125 359.441406 737.421875 359.320312 737.03125 359.15625 C 736.636719 358.992188 736.261719 358.792969 735.90625 358.558594 C 735.554688 358.320312 735.226562 358.050781 734.925781 357.75 C 734.625 357.449219 734.355469 357.121094 734.117188 356.769531 C 733.882812 356.414062 733.683594 356.039062 733.519531 355.648438 C 733.355469 355.253906 733.234375 354.847656 733.148438 354.429688 C 733.066406 354.011719 733.027344 353.589844 733.027344 353.164062 C 733.027344 352.738281 733.066406 352.316406 733.148438 351.898438 C 733.234375 351.480469 733.355469 351.074219 733.519531 350.683594 C 733.683594 350.289062 733.882812 349.914062 734.117188 349.5625 C 734.355469 349.207031 734.625 348.878906 734.925781 348.578125 C 735.226562 348.277344 735.554688 348.007812 735.90625 347.773438 C 736.261719 347.535156 736.636719 347.335938 737.03125 347.171875 C 737.421875 347.007812 737.828125 346.886719 738.246094 346.804688 C 738.664062 346.71875 739.085938 346.679688 739.511719 346.679688 L 843.289062 346.679688 C 843.714844 346.679688 844.136719 346.71875 844.554688 346.804688 C 844.972656 346.886719 845.378906 347.007812 845.773438 347.171875 C 846.164062 347.335938 846.539062 347.535156 846.894531 347.773438 C 847.246094 348.007812 847.574219 348.277344 847.875 348.578125 C 848.175781 348.878906 848.445312 349.207031 848.683594 349.5625 C 848.917969 349.914062 849.117188 350.289062 849.28125 350.683594 C 849.445312 351.074219 849.566406 351.480469 849.652344 351.898438 C 849.734375 352.316406 849.777344 352.738281 849.777344 353.164062 C 849.777344 353.589844 849.734375 354.011719 849.652344 354.429688 C 849.566406 354.847656 849.445312 355.253906 849.28125 355.648438 C 849.117188 356.039062 848.917969 356.414062 848.683594 356.769531 C 848.445312 357.121094 848.175781 357.449219 847.875 357.75 C 847.574219 358.050781 847.246094 358.320312 846.894531 358.558594 C 846.539062 358.792969 846.164062 358.992188 845.773438 359.15625 C 845.378906 359.320312 844.972656 359.441406 844.554688 359.527344 C 844.136719 359.609375 843.714844 359.652344 843.289062 359.652344 Z M 843.289062 359.652344 " fill-opacity="1" fill-rule="nonzero"/><path fill="#ffa100" d="M 590.332031 437.484375 L 486.554688 437.484375 C 486.128906 437.484375 485.707031 437.441406 485.289062 437.359375 C 484.871094 437.277344 484.464844 437.152344 484.070312 436.988281 C 483.679688 436.828125 483.304688 436.628906 482.949219 436.390625 C 482.597656 436.152344 482.269531 435.886719 481.96875 435.585938 C 481.664062 435.28125 481.398438 434.957031 481.160156 434.601562 C 480.921875 434.246094 480.722656 433.875 480.5625 433.480469 C 480.398438 433.085938 480.273438 432.679688 480.191406 432.261719 C 480.109375 431.84375 480.066406 431.421875 480.066406 430.996094 C 480.066406 430.570312 480.109375 430.148438 480.191406 429.734375 C 480.273438 429.316406 480.398438 428.910156 480.5625 428.515625 C 480.722656 428.121094 480.921875 427.75 481.160156 427.394531 C 481.398438 427.039062 481.664062 426.710938 481.96875 426.410156 C 482.269531 426.109375 482.597656 425.839844 482.949219 425.605469 C 483.304688 425.367188 483.679688 425.167969 484.070312 425.003906 C 484.464844 424.84375 484.871094 424.71875 485.289062 424.636719 C 485.707031 424.554688 486.128906 424.511719 486.554688 424.511719 L 590.332031 424.511719 C 590.757812 424.511719 591.179688 424.554688 591.597656 424.636719 C 592.015625 424.71875 592.417969 424.84375 592.8125 425.003906 C 593.207031 425.167969 593.582031 425.367188 593.933594 425.605469 C 594.289062 425.839844 594.617188 426.109375 594.917969 426.410156 C 595.21875 426.710938 595.488281 427.039062 595.722656 427.394531 C 595.960938 427.75 596.160156 428.121094 596.324219 428.515625 C 596.488281 428.910156 596.609375 429.316406 596.691406 429.734375 C 596.777344 430.148438 596.816406 430.570312 596.816406 430.996094 C 596.816406 431.421875 596.777344 431.84375 596.691406 432.261719 C 596.609375 432.679688 596.488281 433.085938 596.324219 433.480469 C 596.160156 433.875 595.960938 434.246094 595.722656 434.601562 C 595.488281 434.957031 595.21875 435.28125 594.917969 435.585938 C 594.617188 435.886719 594.289062 436.152344 593.933594 436.390625 C 593.582031 436.628906 593.207031 436.828125 592.8125 436.988281 C 592.417969 437.152344 592.015625 437.277344 591.597656 437.359375 C 591.179688 437.441406 590.757812 437.484375 590.332031 437.484375 Z M 590.332031 437.484375 " fill-opacity="1" fill-rule="nonzero"/><path fill="#a5bced" d="M 512.496094 469.914062 L 486.554688 469.914062 C 486.128906 469.914062 485.707031 469.871094 485.289062 469.789062 C 484.871094 469.707031 484.464844 469.582031 484.070312 469.421875 C 483.679688 469.257812 483.304688 469.058594 482.949219 468.820312 C 482.597656 468.585938 482.269531 468.316406 481.96875 468.015625 C 481.664062 467.714844 481.398438 467.386719 481.160156 467.03125 C 480.921875 466.679688 480.722656 466.304688 480.5625 465.910156 C 480.398438 465.515625 480.273438 465.113281 480.191406 464.695312 C 480.109375 464.277344 480.066406 463.855469 480.066406 463.429688 C 480.066406 463.003906 480.109375 462.582031 480.191406 462.164062 C 480.273438 461.746094 480.398438 461.339844 480.5625 460.945312 C 480.722656 460.554688 480.921875 460.179688 481.160156 459.824219 C 481.398438 459.472656 481.664062 459.144531 481.96875 458.84375 C 482.269531 458.539062 482.597656 458.273438 482.949219 458.035156 C 483.304688 457.796875 483.679688 457.597656 484.070312 457.4375 C 484.464844 457.273438 484.871094 457.148438 485.289062 457.066406 C 485.707031 456.984375 486.128906 456.941406 486.554688 456.941406 L 512.496094 456.941406 C 512.921875 456.941406 513.34375 456.984375 513.761719 457.066406 C 514.179688 457.148438 514.585938 457.273438 514.980469 457.4375 C 515.375 457.597656 515.746094 457.796875 516.101562 458.035156 C 516.457031 458.273438 516.78125 458.539062 517.085938 458.84375 C 517.386719 459.144531 517.652344 459.472656 517.890625 459.824219 C 518.128906 460.179688 518.328125 460.554688 518.488281 460.945312 C 518.652344 461.339844 518.777344 461.746094 518.859375 462.164062 C 518.941406 462.582031 518.984375 463.003906 518.984375 463.429688 C 518.984375 463.855469 518.941406 464.277344 518.859375 464.695312 C 518.777344 465.113281 518.652344 465.515625 518.488281 465.910156 C 518.328125 466.304688 518.128906 466.679688 517.890625 467.03125 C 517.652344 467.386719 517.386719 467.714844 517.085938 468.015625 C 516.78125 468.316406 516.457031 468.585938 516.101562 468.820312 C 515.746094 469.058594 515.375 469.257812 514.980469 469.421875 C 514.585938 469.582031 514.179688 469.707031 513.761719 469.789062 C 513.34375 469.871094 512.921875 469.914062 512.496094 469.914062 Z M 512.496094 469.914062 " fill-opacity="1" fill-rule="nonzero"/><path fill="#a5bced" d="M 778.429688 385.59375 L 882.207031 385.59375 C 883.058594 385.59375 883.902344 385.679688 884.738281 385.84375 C 885.570312 386.011719 886.382812 386.257812 887.171875 386.582031 C 887.957031 386.910156 888.703125 387.308594 889.414062 387.78125 C 890.121094 388.253906 890.777344 388.792969 891.378906 389.394531 C 891.980469 389.996094 892.519531 390.652344 892.992188 391.359375 C 893.464844 392.070312 893.863281 392.816406 894.191406 393.601562 C 894.515625 394.390625 894.761719 395.199219 894.929688 396.035156 C 895.09375 396.871094 895.179688 397.714844 895.179688 398.566406 L 895.179688 463.429688 C 895.179688 464.28125 895.09375 465.125 894.929688 465.960938 C 894.761719 466.792969 894.515625 467.605469 894.191406 468.394531 C 893.863281 469.179688 893.464844 469.925781 892.992188 470.636719 C 892.519531 471.34375 891.980469 472 891.378906 472.601562 C 890.777344 473.203125 890.121094 473.742188 889.414062 474.214844 C 888.703125 474.6875 887.957031 475.085938 887.171875 475.414062 C 886.382812 475.738281 885.570312 475.984375 884.738281 476.152344 C 883.902344 476.316406 883.058594 476.402344 882.207031 476.402344 L 778.429688 476.402344 C 777.578125 476.402344 776.734375 476.316406 775.898438 476.152344 C 775.0625 475.984375 774.25 475.738281 773.464844 475.414062 C 772.675781 475.085938 771.929688 474.6875 771.222656 474.214844 C 770.511719 473.742188 769.859375 473.203125 769.253906 472.601562 C 768.652344 472 768.117188 471.34375 767.640625 470.636719 C 767.167969 469.925781 766.769531 469.179688 766.445312 468.394531 C 766.117188 467.605469 765.871094 466.792969 765.707031 465.960938 C 765.539062 465.125 765.457031 464.28125 765.457031 463.429688 L 765.457031 398.566406 C 765.457031 397.714844 765.539062 396.871094 765.707031 396.035156 C 765.871094 395.199219 766.117188 394.390625 766.445312 393.601562 C 766.769531 392.816406 767.167969 392.070312 767.640625 391.359375 C 768.117188 390.652344 768.652344 389.996094 769.253906 389.394531 C 769.859375 388.792969 770.511719 388.253906 771.222656 387.78125 C 771.929688 387.308594 772.675781 386.910156 773.464844 386.582031 C 774.25 386.257812 775.0625 386.011719 775.898438 385.84375 C 776.734375 385.679688 777.578125 385.59375 778.429688 385.59375 Z M 778.429688 385.59375 " fill-opacity="1" fill-rule="nonzero"/><path fill="#4e6aff" d="M 882.207031 379.109375 L 778.429688 379.109375 C 777.792969 379.109375 777.15625 379.140625 776.519531 379.203125 C 775.886719 379.265625 775.257812 379.359375 774.632812 379.484375 C 774.007812 379.605469 773.390625 379.761719 772.78125 379.945312 C 772.171875 380.132812 771.570312 380.347656 770.980469 380.589844 C 770.394531 380.835938 769.816406 381.105469 769.253906 381.40625 C 768.695312 381.707031 768.148438 382.035156 767.617188 382.386719 C 767.089844 382.742188 766.578125 383.121094 766.085938 383.527344 C 765.589844 383.929688 765.121094 384.359375 764.667969 384.808594 C 764.21875 385.257812 763.792969 385.730469 763.386719 386.222656 C 762.984375 386.714844 762.601562 387.226562 762.25 387.757812 C 761.894531 388.285156 761.566406 388.832031 761.269531 389.394531 C 760.96875 389.957031 760.695312 390.53125 760.453125 391.121094 C 760.207031 391.710938 759.992188 392.308594 759.808594 392.917969 C 759.621094 393.527344 759.46875 394.144531 759.34375 394.769531 C 759.21875 395.394531 759.125 396.027344 759.0625 396.660156 C 759 397.292969 758.96875 397.929688 758.96875 398.566406 L 758.96875 463.429688 C 758.96875 464.066406 759 464.703125 759.0625 465.335938 C 759.125 465.96875 759.21875 466.597656 759.34375 467.222656 C 759.46875 467.847656 759.621094 468.46875 759.808594 469.078125 C 759.992188 469.6875 760.207031 470.285156 760.449219 470.875 C 760.695312 471.464844 760.96875 472.039062 761.269531 472.601562 C 761.566406 473.164062 761.894531 473.710938 762.25 474.238281 C 762.601562 474.769531 762.984375 475.28125 763.386719 475.773438 C 763.792969 476.265625 764.21875 476.738281 764.667969 477.1875 C 765.121094 477.636719 765.589844 478.066406 766.085938 478.46875 C 766.578125 478.875 767.089844 479.253906 767.617188 479.605469 C 768.148438 479.960938 768.695312 480.289062 769.253906 480.589844 C 769.816406 480.890625 770.394531 481.160156 770.980469 481.40625 C 771.570312 481.648438 772.171875 481.863281 772.78125 482.050781 C 773.390625 482.234375 774.007812 482.386719 774.632812 482.511719 C 775.257812 482.636719 775.886719 482.730469 776.519531 482.792969 C 777.15625 482.855469 777.792969 482.886719 778.429688 482.886719 L 882.207031 482.886719 C 882.84375 482.886719 883.480469 482.855469 884.113281 482.792969 C 884.746094 482.730469 885.378906 482.636719 886.003906 482.511719 C 886.628906 482.386719 887.246094 482.234375 887.855469 482.050781 C 888.464844 481.863281 889.0625 481.648438 889.652344 481.40625 C 890.242188 481.160156 890.816406 480.890625 891.378906 480.589844 C 891.941406 480.289062 892.488281 479.960938 893.015625 479.605469 C 893.546875 479.253906 894.058594 478.875 894.550781 478.46875 C 895.042969 478.066406 895.515625 477.636719 895.964844 477.1875 C 896.414062 476.738281 896.84375 476.265625 897.246094 475.773438 C 897.652344 475.28125 898.03125 474.769531 898.386719 474.238281 C 898.738281 473.710938 899.066406 473.164062 899.367188 472.601562 C 899.667969 472.039062 899.9375 471.464844 900.183594 470.875 C 900.425781 470.285156 900.640625 469.6875 900.828125 469.078125 C 901.011719 468.46875 901.167969 467.847656 901.289062 467.222656 C 901.414062 466.597656 901.507812 465.96875 901.570312 465.335938 C 901.632812 464.703125 901.664062 464.066406 901.664062 463.429688 L 901.664062 398.566406 C 901.664062 397.929688 901.632812 397.292969 901.570312 396.660156 C 901.507812 396.027344 901.414062 395.394531 901.289062 394.769531 C 901.167969 394.144531 901.011719 393.527344 900.828125 392.917969 C 900.640625 392.308594 900.425781 391.710938 900.183594 391.121094 C 899.9375 390.53125 899.667969 389.957031 899.367188 389.394531 C 899.066406 388.832031 898.738281 388.285156 898.386719 387.757812 C 898.03125 387.226562 897.652344 386.714844 897.246094 386.222656 C 896.84375 385.730469 896.414062 385.257812 895.964844 384.808594 C 895.515625 384.359375 895.042969 383.929688 894.550781 383.527344 C 894.058594 383.121094 893.546875 382.742188 893.015625 382.386719 C 892.488281 382.035156 891.941406 381.707031 891.378906 381.40625 C 890.816406 381.105469 890.242188 380.835938 889.652344 380.589844 C 889.0625 380.347656 888.464844 380.132812 887.855469 379.945312 C 887.246094 379.761719 886.628906 379.605469 886.003906 379.484375 C 885.378906 379.359375 884.746094 379.265625 884.113281 379.203125 C 883.480469 379.140625 882.84375 379.109375 882.207031 379.109375 Z M 888.691406 399.863281 L 888.691406 462.132812 L 841.992188 430.996094 Z M 830.316406 423.214844 L 783.617188 392.082031 L 877.015625 392.082031 Z M 818.640625 430.996094 L 771.941406 462.132812 L 771.941406 399.863281 Z M 830.316406 438.78125 L 877.015625 469.914062 L 783.617188 469.914062 Z M 830.316406 438.78125 " fill-opacity="1" fill-rule="nonzero"/><g clip-path="url(#4c4a2c800a)"><path fill="#7f96d1" d="M 882.207031 469.914062 L 985.984375 469.914062 C 987.257812 469.914062 988.53125 469.976562 989.796875 470.101562 C 991.066406 470.226562 992.324219 470.414062 993.574219 470.664062 C 994.828125 470.910156 996.0625 471.21875 997.28125 471.589844 C 998.5 471.960938 999.699219 472.390625 1000.875 472.875 C 1002.054688 473.363281 1003.203125 473.910156 1004.328125 474.507812 C 1005.453125 475.109375 1006.546875 475.765625 1007.605469 476.472656 C 1008.664062 477.179688 1009.6875 477.941406 1010.671875 478.75 C 1011.65625 479.558594 1012.601562 480.410156 1013.503906 481.3125 C 1014.402344 482.214844 1015.257812 483.15625 1016.066406 484.144531 C 1016.875 485.128906 1017.632812 486.152344 1018.34375 487.210938 C 1019.050781 488.269531 1019.703125 489.363281 1020.304688 490.484375 C 1020.90625 491.609375 1021.449219 492.761719 1021.9375 493.9375 C 1022.425781 495.117188 1022.855469 496.316406 1023.226562 497.535156 C 1023.59375 498.753906 1023.902344 499.988281 1024.152344 501.238281 C 1024.402344 502.488281 1024.589844 503.75 1024.714844 505.015625 C 1024.839844 506.285156 1024.902344 507.554688 1024.902344 508.832031 L 1024.902344 716.386719 C 1024.902344 717.660156 1024.839844 718.933594 1024.714844 720.203125 C 1024.589844 721.46875 1024.402344 722.730469 1024.152344 723.980469 C 1023.902344 725.230469 1023.59375 726.464844 1023.226562 727.683594 C 1022.855469 728.902344 1022.425781 730.101562 1021.9375 731.28125 C 1021.449219 732.457031 1020.90625 733.609375 1020.304688 734.730469 C 1019.703125 735.855469 1019.050781 736.949219 1018.34375 738.007812 C 1017.632812 739.066406 1016.875 740.089844 1016.066406 741.074219 C 1015.257812 742.058594 1014.402344 743.003906 1013.503906 743.90625 C 1012.601562 744.804688 1011.65625 745.660156 1010.671875 746.46875 C 1009.6875 747.277344 1008.664062 748.035156 1007.605469 748.746094 C 1006.546875 749.453125 1005.453125 750.105469 1004.328125 750.707031 C 1003.203125 751.308594 1002.054688 751.851562 1000.875 752.339844 C 999.699219 752.828125 998.5 753.257812 997.28125 753.628906 C 996.0625 753.996094 994.828125 754.308594 993.574219 754.554688 C 992.324219 754.804688 991.066406 754.992188 989.796875 755.117188 C 988.53125 755.242188 987.257812 755.304688 985.984375 755.304688 L 882.207031 755.304688 C 880.929688 755.304688 879.660156 755.242188 878.390625 755.117188 C 877.125 754.992188 875.863281 754.804688 874.613281 754.554688 C 873.363281 754.308594 872.128906 753.996094 870.910156 753.628906 C 869.691406 753.257812 868.492188 752.828125 867.3125 752.339844 C 866.136719 751.851562 864.984375 751.308594 863.859375 750.707031 C 862.738281 750.105469 861.644531 749.453125 860.585938 748.746094 C 859.523438 748.035156 858.503906 747.277344 857.519531 746.46875 C 856.53125 745.660156 855.589844 744.804688 854.6875 743.90625 C 853.785156 743.003906 852.933594 742.058594 852.125 741.074219 C 851.316406 740.089844 850.554688 739.066406 849.847656 738.007812 C 849.140625 736.949219 848.484375 735.855469 847.882812 734.730469 C 847.285156 733.609375 846.738281 732.457031 846.25 731.28125 C 845.765625 730.101562 845.335938 728.902344 844.964844 727.683594 C 844.59375 726.464844 844.285156 725.230469 844.039062 723.980469 C 843.789062 722.730469 843.601562 721.46875 843.476562 720.203125 C 843.351562 718.933594 843.289062 717.660156 843.289062 716.386719 L 843.289062 508.832031 C 843.289062 507.554688 843.351562 506.285156 843.476562 505.015625 C 843.601562 503.75 843.789062 502.488281 844.039062 501.238281 C 844.285156 499.988281 844.59375 498.753906 844.964844 497.535156 C 845.335938 496.316406 845.765625 495.117188 846.25 493.9375 C 846.738281 492.761719 847.285156 491.609375 847.882812 490.484375 C 848.484375 489.363281 849.140625 488.269531 849.847656 487.210938 C 850.554688 486.152344 851.316406 485.128906 852.125 484.144531 C 852.933594 483.15625 853.785156 482.214844 854.6875 481.3125 C 855.589844 480.410156 856.53125 479.558594 857.519531 478.75 C 858.503906 477.941406 859.523438 477.179688 860.585938 476.472656 C 861.644531 475.765625 862.738281 475.109375 863.859375 474.507812 C 864.984375 473.910156 866.136719 473.363281 867.3125 472.875 C 868.492188 472.390625 869.691406 471.960938 870.910156 471.589844 C 872.128906 471.21875 873.363281 470.910156 874.613281 470.664062 C 875.863281 470.414062 877.125 470.226562 878.390625 470.101562 C 879.660156 469.976562 880.929688 469.914062 882.207031 469.914062 Z M 882.207031 469.914062 " fill-opacity="1" fill-rule="nonzero"/></g><path fill="#ffffff" d="M 1005.441406 508.832031 L 1005.441406 716.386719 C 1005.441406 717.023438 1005.410156 717.660156 1005.347656 718.292969 C 1005.285156 718.929688 1005.191406 719.558594 1005.066406 720.183594 C 1004.945312 720.808594 1004.789062 721.425781 1004.605469 722.035156 C 1004.417969 722.644531 1004.203125 723.246094 1003.960938 723.832031 C 1003.71875 724.421875 1003.445312 724.996094 1003.144531 725.558594 C 1002.84375 726.121094 1002.515625 726.667969 1002.164062 727.195312 C 1001.808594 727.726562 1001.429688 728.238281 1001.023438 728.730469 C 1000.621094 729.222656 1000.195312 729.695312 999.742188 730.144531 C 999.292969 730.597656 998.820312 731.023438 998.328125 731.429688 C 997.835938 731.832031 997.324219 732.210938 996.792969 732.566406 C 996.265625 732.917969 995.71875 733.246094 995.15625 733.546875 C 994.59375 733.847656 994.019531 734.121094 993.429688 734.363281 C 992.839844 734.609375 992.242188 734.820312 991.632812 735.007812 C 991.023438 735.191406 990.40625 735.347656 989.78125 735.472656 C 989.15625 735.59375 988.523438 735.6875 987.890625 735.75 C 987.257812 735.8125 986.621094 735.84375 985.984375 735.84375 L 882.207031 735.84375 C 881.570312 735.84375 880.933594 735.8125 880.300781 735.75 C 879.664062 735.6875 879.035156 735.59375 878.410156 735.472656 C 877.785156 735.347656 877.167969 735.191406 876.558594 735.007812 C 875.949219 734.820312 875.347656 734.609375 874.757812 734.363281 C 874.171875 734.121094 873.59375 733.847656 873.035156 733.546875 C 872.472656 733.246094 871.925781 732.917969 871.394531 732.566406 C 870.867188 732.210938 870.355469 731.832031 869.863281 731.429688 C 869.371094 731.023438 868.898438 730.597656 868.445312 730.144531 C 867.996094 729.695312 867.570312 729.222656 867.164062 728.730469 C 866.761719 728.238281 866.382812 727.726562 866.027344 727.195312 C 865.671875 726.667969 865.347656 726.121094 865.046875 725.558594 C 864.746094 724.996094 864.472656 724.421875 864.230469 723.832031 C 863.984375 723.246094 863.769531 722.644531 863.585938 722.035156 C 863.402344 721.425781 863.246094 720.808594 863.121094 720.183594 C 862.996094 719.558594 862.902344 718.929688 862.839844 718.292969 C 862.777344 717.660156 862.746094 717.023438 862.746094 716.386719 L 862.746094 508.832031 C 862.746094 508.195312 862.777344 507.558594 862.839844 506.925781 C 862.902344 506.289062 862.996094 505.660156 863.121094 505.035156 C 863.246094 504.410156 863.402344 503.792969 863.585938 503.183594 C 863.769531 502.574219 863.984375 501.972656 864.230469 501.382812 C 864.472656 500.796875 864.746094 500.21875 865.046875 499.660156 C 865.347656 499.097656 865.671875 498.550781 866.027344 498.019531 C 866.382812 497.492188 866.761719 496.980469 867.164062 496.488281 C 867.570312 495.996094 867.996094 495.523438 868.445312 495.070312 C 868.898438 494.621094 869.371094 494.195312 869.863281 493.789062 C 870.355469 493.386719 870.867188 493.007812 871.394531 492.652344 C 871.925781 492.296875 872.472656 491.972656 873.035156 491.671875 C 873.59375 491.371094 874.171875 491.097656 874.761719 490.855469 C 875.347656 490.609375 875.949219 490.394531 876.558594 490.210938 C 877.167969 490.027344 877.785156 489.871094 878.410156 489.746094 C 879.035156 489.621094 879.664062 489.527344 880.300781 489.464844 C 880.933594 489.402344 881.570312 489.371094 882.207031 489.371094 L 895.179688 489.371094 C 895.179688 489.371094 906.464844 499.101562 934.09375 499.101562 C 961.726562 499.101562 973.011719 489.371094 973.011719 489.371094 L 985.984375 489.371094 C 986.621094 489.371094 987.257812 489.402344 987.890625 489.464844 C 988.523438 489.527344 989.15625 489.621094 989.78125 489.746094 C 990.40625 489.871094 991.023438 490.027344 991.632812 490.210938 C 992.242188 490.394531 992.839844 490.609375 993.429688 490.855469 C 994.019531 491.097656 994.59375 491.371094 995.15625 491.671875 C 995.71875 491.972656 996.265625 492.296875 996.792969 492.652344 C 997.324219 493.007812 997.835938 493.386719 998.328125 493.789062 C 998.820312 494.195312 999.292969 494.621094 999.742188 495.070312 C 1000.195312 495.523438 1000.621094 495.996094 1001.023438 496.488281 C 1001.429688 496.980469 1001.808594 497.492188 1002.164062 498.019531 C 1002.515625 498.550781 1002.84375 499.097656 1003.144531 499.660156 C 1003.445312 500.21875 1003.71875 500.796875 1003.960938 501.382812 C 1004.203125 501.972656 1004.417969 502.574219 1004.605469 503.183594 C 1004.789062 503.792969 1004.945312 504.410156 1005.066406 505.035156 C 1005.191406 505.660156 1005.285156 506.289062 1005.347656 506.925781 C 1005.410156 507.558594 1005.441406 508.195312 1005.441406 508.832031 Z M 1005.441406 508.832031 " fill-opacity="1" fill-rule="nonzero"/><path fill="#7f96d1" d="M 895.179688 489.371094 L 973.011719 489.371094 L 973.011719 495.859375 C 973.011719 496.710938 972.929688 497.554688 972.761719 498.390625 C 972.597656 499.226562 972.351562 500.035156 972.023438 500.824219 C 971.699219 501.609375 971.296875 502.359375 970.824219 503.066406 C 970.351562 503.773438 969.8125 504.429688 969.210938 505.03125 C 968.609375 505.632812 967.953125 506.171875 967.246094 506.644531 C 966.539062 507.117188 965.789062 507.519531 965.003906 507.84375 C 964.214844 508.167969 963.40625 508.414062 962.570312 508.582031 C 961.734375 508.75 960.890625 508.832031 960.039062 508.832031 L 908.152344 508.832031 C 907.296875 508.832031 906.457031 508.75 905.621094 508.582031 C 904.785156 508.414062 903.972656 508.167969 903.1875 507.84375 C 902.398438 507.519531 901.652344 507.117188 900.945312 506.644531 C 900.234375 506.171875 899.582031 505.632812 898.976562 505.03125 C 898.375 504.429688 897.835938 503.773438 897.363281 503.066406 C 896.890625 502.359375 896.492188 501.609375 896.164062 500.824219 C 895.839844 500.035156 895.59375 499.226562 895.425781 498.390625 C 895.261719 497.554688 895.179688 496.710938 895.179688 495.859375 Z M 895.179688 489.371094 " fill-opacity="1" fill-rule="nonzero"/><path fill="#a5bced" d="M 973.011719 716.386719 L 895.179688 716.386719 C 894.753906 716.386719 894.332031 716.34375 893.914062 716.261719 C 893.496094 716.179688 893.089844 716.054688 892.695312 715.894531 C 892.300781 715.730469 891.929688 715.53125 891.574219 715.292969 C 891.222656 715.058594 890.894531 714.789062 890.59375 714.488281 C 890.289062 714.1875 890.023438 713.859375 889.785156 713.503906 C 889.546875 713.148438 889.347656 712.777344 889.1875 712.382812 C 889.023438 711.988281 888.898438 711.582031 888.816406 711.164062 C 888.734375 710.75 888.691406 710.328125 888.691406 709.902344 C 888.691406 709.476562 888.734375 709.054688 888.816406 708.636719 C 888.898438 708.21875 889.023438 707.8125 889.1875 707.417969 C 889.347656 707.023438 889.546875 706.652344 889.785156 706.296875 C 890.023438 705.941406 890.289062 705.617188 890.59375 705.3125 C 890.894531 705.011719 891.222656 704.742188 891.574219 704.507812 C 891.929688 704.269531 892.300781 704.070312 892.695312 703.90625 C 893.089844 703.746094 893.496094 703.621094 893.914062 703.539062 C 894.332031 703.457031 894.753906 703.414062 895.179688 703.414062 L 973.011719 703.414062 C 973.4375 703.414062 973.859375 703.457031 974.277344 703.539062 C 974.695312 703.621094 975.101562 703.746094 975.492188 703.90625 C 975.886719 704.070312 976.261719 704.269531 976.613281 704.507812 C 976.96875 704.742188 977.296875 705.011719 977.597656 705.3125 C 977.898438 705.617188 978.167969 705.941406 978.40625 706.296875 C 978.640625 706.652344 978.839844 707.023438 979.003906 707.417969 C 979.167969 707.8125 979.289062 708.21875 979.375 708.636719 C 979.457031 709.054688 979.496094 709.476562 979.496094 709.902344 C 979.496094 710.328125 979.457031 710.75 979.375 711.164062 C 979.289062 711.582031 979.167969 711.988281 979.003906 712.382812 C 978.839844 712.777344 978.640625 713.148438 978.40625 713.503906 C 978.167969 713.859375 977.898438 714.1875 977.597656 714.488281 C 977.296875 714.789062 976.96875 715.058594 976.613281 715.292969 C 976.261719 715.53125 975.886719 715.730469 975.492188 715.894531 C 975.101562 716.054688 974.695312 716.179688 974.277344 716.261719 C 973.859375 716.34375 973.4375 716.386719 973.011719 716.386719 Z M 973.011719 716.386719 " fill-opacity="1" fill-rule="nonzero"/><path fill="#00c99f" d="M 895.179688 541.261719 L 908.152344 541.261719 C 909.003906 541.261719 909.847656 541.34375 910.679688 541.511719 C 911.515625 541.675781 912.328125 541.921875 913.113281 542.25 C 913.902344 542.574219 914.648438 542.976562 915.359375 543.449219 C 916.066406 543.921875 916.722656 544.457031 917.324219 545.0625 C 917.925781 545.664062 918.464844 546.320312 918.9375 547.027344 C 919.410156 547.734375 919.808594 548.484375 920.136719 549.269531 C 920.460938 550.054688 920.707031 550.867188 920.875 551.703125 C 921.039062 552.539062 921.121094 553.382812 921.121094 554.234375 L 921.121094 567.207031 C 921.121094 568.058594 921.039062 568.902344 920.875 569.738281 C 920.707031 570.570312 920.460938 571.382812 920.136719 572.171875 C 919.808594 572.957031 919.410156 573.703125 918.9375 574.414062 C 918.464844 575.121094 917.925781 575.777344 917.324219 576.378906 C 916.722656 576.980469 916.066406 577.519531 915.359375 577.992188 C 914.648438 578.464844 913.902344 578.863281 913.113281 579.191406 C 912.328125 579.515625 911.515625 579.761719 910.679688 579.929688 C 909.847656 580.09375 909.003906 580.179688 908.152344 580.179688 L 895.179688 580.179688 C 894.328125 580.179688 893.484375 580.09375 892.648438 579.929688 C 891.8125 579.761719 891 579.515625 890.214844 579.191406 C 889.425781 578.863281 888.679688 578.464844 887.972656 577.992188 C 887.261719 577.519531 886.609375 576.980469 886.003906 576.378906 C 885.402344 575.777344 884.867188 575.121094 884.390625 574.414062 C 883.917969 573.703125 883.519531 572.957031 883.195312 572.171875 C 882.867188 571.382812 882.621094 570.570312 882.457031 569.738281 C 882.289062 568.902344 882.207031 568.058594 882.207031 567.207031 L 882.207031 554.234375 C 882.207031 553.382812 882.289062 552.539062 882.457031 551.703125 C 882.621094 550.867188 882.867188 550.054688 883.195312 549.269531 C 883.519531 548.484375 883.917969 547.734375 884.390625 547.027344 C 884.867188 546.320312 885.402344 545.664062 886.003906 545.0625 C 886.609375 544.457031 887.261719 543.921875 887.972656 543.449219 C 888.679688 542.976562 889.425781 542.574219 890.214844 542.25 C 891 541.921875 891.8125 541.675781 892.648438 541.511719 C 893.484375 541.34375 894.328125 541.261719 895.179688 541.261719 Z M 895.179688 541.261719 " fill-opacity="1" fill-rule="nonzero"/><path fill="#ffa100" d="M 960.039062 541.261719 L 973.011719 541.261719 C 973.863281 541.261719 974.707031 541.34375 975.542969 541.511719 C 976.378906 541.675781 977.1875 541.921875 977.976562 542.25 C 978.761719 542.574219 979.511719 542.976562 980.21875 543.449219 C 980.925781 543.921875 981.582031 544.457031 982.183594 545.0625 C 982.785156 545.664062 983.324219 546.320312 983.796875 547.027344 C 984.269531 547.734375 984.671875 548.484375 984.996094 549.269531 C 985.324219 550.054688 985.570312 550.867188 985.734375 551.703125 C 985.902344 552.539062 985.984375 553.382812 985.984375 554.234375 L 985.984375 567.207031 C 985.984375 568.058594 985.902344 568.902344 985.734375 569.738281 C 985.570312 570.570312 985.324219 571.382812 984.996094 572.171875 C 984.671875 572.957031 984.269531 573.703125 983.796875 574.414062 C 983.324219 575.121094 982.785156 575.777344 982.183594 576.378906 C 981.582031 576.980469 980.925781 577.519531 980.21875 577.992188 C 979.511719 578.464844 978.761719 578.863281 977.976562 579.191406 C 977.1875 579.515625 976.378906 579.761719 975.542969 579.929688 C 974.707031 580.09375 973.863281 580.179688 973.011719 580.179688 L 960.039062 580.179688 C 959.1875 580.179688 958.34375 580.09375 957.507812 579.929688 C 956.671875 579.761719 955.863281 579.515625 955.074219 579.191406 C 954.289062 578.863281 953.539062 578.464844 952.832031 577.992188 C 952.125 577.519531 951.46875 576.980469 950.867188 576.378906 C 950.265625 575.777344 949.726562 575.121094 949.253906 574.414062 C 948.78125 573.703125 948.378906 572.957031 948.054688 572.171875 C 947.730469 571.382812 947.484375 570.570312 947.316406 569.738281 C 947.148438 568.902344 947.066406 568.058594 947.066406 567.207031 L 947.066406 554.234375 C 947.066406 553.382812 947.148438 552.539062 947.316406 551.703125 C 947.484375 550.867188 947.730469 550.054688 948.054688 549.269531 C 948.378906 548.484375 948.78125 547.734375 949.253906 547.027344 C 949.726562 546.320312 950.265625 545.664062 950.867188 545.0625 C 951.46875 544.457031 952.125 543.921875 952.832031 543.449219 C 953.539062 542.976562 954.289062 542.574219 955.074219 542.25 C 955.863281 541.921875 956.671875 541.675781 957.507812 541.511719 C 958.34375 541.34375 959.1875 541.261719 960.039062 541.261719 Z M 960.039062 541.261719 " fill-opacity="1" fill-rule="nonzero"/><path fill="#ff4d69" d="M 895.179688 599.636719 L 908.152344 599.636719 C 909.003906 599.636719 909.847656 599.71875 910.679688 599.886719 C 911.515625 600.050781 912.328125 600.296875 913.113281 600.625 C 913.902344 600.949219 914.648438 601.351562 915.359375 601.824219 C 916.066406 602.296875 916.722656 602.832031 917.324219 603.4375 C 917.925781 604.039062 918.464844 604.695312 918.9375 605.402344 C 919.410156 606.109375 919.808594 606.859375 920.136719 607.644531 C 920.460938 608.429688 920.707031 609.242188 920.875 610.078125 C 921.039062 610.914062 921.121094 611.757812 921.121094 612.609375 L 921.121094 625.582031 C 921.121094 626.433594 921.039062 627.277344 920.875 628.113281 C 920.707031 628.945312 920.460938 629.757812 920.136719 630.546875 C 919.808594 631.332031 919.410156 632.078125 918.9375 632.789062 C 918.464844 633.496094 917.925781 634.152344 917.324219 634.753906 C 916.722656 635.355469 916.066406 635.894531 915.359375 636.367188 C 914.648438 636.839844 913.902344 637.238281 913.113281 637.566406 C 912.328125 637.890625 911.515625 638.136719 910.679688 638.304688 C 909.847656 638.46875 909.003906 638.554688 908.152344 638.554688 L 895.179688 638.554688 C 894.328125 638.554688 893.484375 638.46875 892.648438 638.304688 C 891.8125 638.136719 891 637.890625 890.214844 637.566406 C 889.425781 637.238281 888.679688 636.839844 887.972656 636.367188 C 887.261719 635.894531 886.609375 635.355469 886.003906 634.753906 C 885.402344 634.152344 884.867188 633.496094 884.390625 632.789062 C 883.917969 632.078125 883.519531 631.332031 883.195312 630.546875 C 882.867188 629.757812 882.621094 628.945312 882.457031 628.113281 C 882.289062 627.277344 882.207031 626.433594 882.207031 625.582031 L 882.207031 612.609375 C 882.207031 611.757812 882.289062 610.914062 882.457031 610.078125 C 882.621094 609.242188 882.867188 608.429688 883.195312 607.644531 C 883.519531 606.859375 883.917969 606.109375 884.390625 605.402344 C 884.867188 604.695312 885.402344 604.039062 886.003906 603.4375 C 886.609375 602.832031 887.261719 602.296875 887.972656 601.824219 C 888.679688 601.351562 889.425781 600.949219 890.214844 600.625 C 891 600.296875 891.8125 600.050781 892.648438 599.886719 C 893.484375 599.71875 894.328125 599.636719 895.179688 599.636719 Z M 895.179688 599.636719 " fill-opacity="1" fill-rule="nonzero"/><path fill="#00c99f" d="M 960.039062 599.636719 L 973.011719 599.636719 C 973.863281 599.636719 974.707031 599.71875 975.542969 599.886719 C 976.378906 600.050781 977.1875 600.296875 977.976562 600.625 C 978.761719 600.949219 979.511719 601.351562 980.21875 601.824219 C 980.925781 602.296875 981.582031 602.832031 982.183594 603.4375 C 982.785156 604.039062 983.324219 604.695312 983.796875 605.402344 C 984.269531 606.109375 984.671875 606.859375 984.996094 607.644531 C 985.324219 608.429688 985.570312 609.242188 985.734375 610.078125 C 985.902344 610.914062 985.984375 611.757812 985.984375 612.609375 L 985.984375 625.582031 C 985.984375 626.433594 985.902344 627.277344 985.734375 628.113281 C 985.570312 628.945312 985.324219 629.757812 984.996094 630.546875 C 984.671875 631.332031 984.269531 632.078125 983.796875 632.789062 C 983.324219 633.496094 982.785156 634.152344 982.183594 634.753906 C 981.582031 635.355469 980.925781 635.894531 980.21875 636.367188 C 979.511719 636.839844 978.761719 637.238281 977.976562 637.566406 C 977.1875 637.890625 976.378906 638.136719 975.542969 638.304688 C 974.707031 638.46875 973.863281 638.554688 973.011719 638.554688 L 960.039062 638.554688 C 959.1875 638.554688 958.34375 638.46875 957.507812 638.304688 C 956.671875 638.136719 955.863281 637.890625 955.074219 637.566406 C 954.289062 637.238281 953.539062 636.839844 952.832031 636.367188 C 952.125 635.894531 951.46875 635.355469 950.867188 634.753906 C 950.265625 634.152344 949.726562 633.496094 949.253906 632.789062 C 948.78125 632.078125 948.378906 631.332031 948.054688 630.546875 C 947.730469 629.757812 947.484375 628.945312 947.316406 628.113281 C 947.148438 627.277344 947.066406 626.433594 947.066406 625.582031 L 947.066406 612.609375 C 947.066406 611.757812 947.148438 610.914062 947.316406 610.078125 C 947.484375 609.242188 947.730469 608.429688 948.054688 607.644531 C 948.378906 606.859375 948.78125 606.109375 949.253906 605.402344 C 949.726562 604.695312 950.265625 604.039062 950.867188 603.4375 C 951.46875 602.832031 952.125 602.296875 952.832031 601.824219 C 953.539062 601.351562 954.289062 600.949219 955.074219 600.625 C 955.863281 600.296875 956.671875 600.050781 957.507812 599.886719 C 958.34375 599.71875 959.1875 599.636719 960.039062 599.636719 Z M 960.039062 599.636719 " fill-opacity="1" fill-rule="nonzero"/><g clip-path="url(#bd7efe4aad)"><path fill="#4e6aff" d="M 1061.410156 256.097656 C 1048.386719 256.097656 1030.914062 265.03125 1019.179688 280.390625 L 1009.449219 280.390625 C 1002.421875 280.390625 998.394531 285.636719 995.617188 291.1875 L 991.90625 298.613281 L 1009.449219 298.613281 L 1018.5625 307.722656 L 1027.671875 316.835938 L 1027.671875 334.378906 L 1035.097656 330.667969 C 1040.648438 327.890625 1045.894531 323.863281 1045.894531 316.835938 L 1045.894531 307.105469 C 1061.253906 295.371094 1070.1875 277.898438 1070.1875 264.875 L 1070.1875 256.097656 Z M 1045.894531 274.316406 C 1049.246094 274.316406 1051.96875 277.035156 1051.96875 280.390625 C 1051.96875 283.746094 1049.246094 286.464844 1045.894531 286.464844 C 1042.539062 286.464844 1039.820312 283.746094 1039.820312 280.390625 C 1039.820312 277.035156 1042.539062 274.316406 1045.894531 274.316406 Z M 1006.414062 310.761719 L 1003.378906 313.796875 C 998.992188 318.183594 997.304688 328.980469 997.304688 328.980469 C 997.304688 328.980469 1007.617188 327.777344 1012.488281 322.90625 L 1015.523438 319.871094 Z M 1006.414062 310.761719 " fill-opacity="1" fill-rule="nonzero"/></g></svg>